<?xml version="1.0" encoding="utf-8"?>
<!-- Generator: Adobe Illustrator 25.0.1, SVG Export Plug-In . SVG Version: 6.00 Build 0)  -->
<svg version="1.1" id="Layer_1" xmlns="http://www.w3.org/2000/svg" xmlns:xlink="http://www.w3.org/1999/xlink" x="0px" y="0px"
	 viewBox="0 0 288 90" style="enable-background:new 0 0 288 90;" xml:space="preserve">
<style type="text/css">
	.st0{fill:#FFFFFF;}
	.st1{fill:none;stroke:#FFDD2F;stroke-width:15.8953;stroke-linecap:round;stroke-linejoin:round;stroke-miterlimit:10;}
	.st2{fill:#36BBD7;}
	.st3{fill:#FFDD2F;stroke:#010202;stroke-width:4;stroke-miterlimit:10;}
	.st4{fill:#010202;}
	.st5{fill:#48277C;}
	.st6{fill:#FFDE14;}
	.st7{fill:none;stroke:#FFDD2F;stroke-width:9;stroke-linecap:round;stroke-linejoin:round;stroke-miterlimit:10;}
	.st8{fill:none;stroke:#7FBB50;stroke-width:9;stroke-linecap:round;stroke-linejoin:round;stroke-miterlimit:10;}
	.st9{fill:none;stroke:#7B539D;stroke-width:9;stroke-linecap:round;stroke-linejoin:round;stroke-miterlimit:10;}
	.st10{fill:#FFDD2F;}
</style>
<g>
	<g>
		<path class="st7" d="M20.7,33.2c0-7.2,6-13.1,13.5-13.1c7.5,0,13.5,5.9,13.5,13.1"/>
		<line class="st8" x1="20.7" y1="68.5" x2="47.7" y2="68.5"/>
		<path class="st2" d="M39.8,36.8c0,3.1-2.5,5.5-5.5,5.5c-3.1,0-5.5-2.5-5.5-5.5c0-3.1,2.5-5.5,5.5-5.5
			C37.3,31.3,39.8,33.8,39.8,36.8z"/>
		<g>
			<line class="st9" x1="25.8" y1="49" x2="34.2" y2="57.4"/>
			<line class="st9" x1="42.6" y1="49" x2="34.2" y2="57.4"/>
		</g>
	</g>
	<g>
		<path d="M71.2,53.4l-3,3v5.5h-6.2V31.3h6.2V49l9.1-8.6h7.4l-9,9.1l9.8,12.4H78L71.2,53.4z"/>
		<path d="M97.2,40.8c1.3-0.5,2.7-0.8,4.4-0.8v5.8c-0.7-0.1-1.2-0.1-1.4-0.1c-1.8,0-3.2,0.5-4.2,1.5c-1,1-1.5,2.5-1.5,4.5v10.2h-6.2
			V40.3h6v2.8C94.9,42.1,95.9,41.3,97.2,40.8z"/>
		<path d="M105.6,36.3c-0.7-0.7-1.1-1.5-1.1-2.5c0-1,0.4-1.8,1.1-2.5c0.7-0.7,1.7-1,2.8-1c1.1,0,2.1,0.3,2.8,1
			c0.7,0.6,1.1,1.4,1.1,2.4c0,1-0.4,1.9-1.1,2.6c-0.7,0.7-1.7,1-2.8,1C107.2,37.3,106.3,37,105.6,36.3z M105.3,40.3h6.2v21.5h-6.2
			V40.3z"/>
		<path d="M139,40.3v17.9c0,3.9-1,6.9-3,8.8c-2,1.9-4.9,2.9-8.7,2.9c-2,0-3.9-0.3-5.7-0.8c-1.8-0.5-3.3-1.2-4.5-2.2l2.5-4.5
			c0.9,0.7,2,1.3,3.3,1.8c1.3,0.4,2.6,0.6,4,0.6c2.1,0,3.6-0.5,4.6-1.4c1-1,1.4-2.4,1.4-4.4v-0.7c-0.8,0.8-1.7,1.4-2.8,1.8
			c-1.1,0.4-2.3,0.6-3.5,0.6c-2.8,0-5.1-0.8-6.7-2.4s-2.5-4-2.5-7.3V40.3h6.2v9.9c0,3.5,1.5,5.2,4.4,5.2c1.5,0,2.7-0.5,3.6-1.5
			c0.9-1,1.4-2.4,1.4-4.3v-9.3H139z"/>
		<path d="M166.6,40.3v21.5h-6v-2.5c-1.5,1.9-3.8,2.8-6.7,2.8c-2,0-3.9-0.5-5.5-1.4c-1.6-0.9-2.9-2.2-3.9-3.9
			c-0.9-1.7-1.4-3.6-1.4-5.8c0-2.2,0.5-4.2,1.4-5.8c0.9-1.7,2.2-3,3.9-3.9c1.6-0.9,3.5-1.4,5.5-1.4c2.7,0,4.9,0.9,6.4,2.6v-2.3
			H166.6z M158.9,55.4c1-1.1,1.6-2.5,1.6-4.3c0-1.8-0.5-3.3-1.6-4.3c-1-1.1-2.3-1.6-3.9-1.6c-1.6,0-2.9,0.5-4,1.6
			c-1,1.1-1.6,2.5-1.6,4.3c0,1.8,0.5,3.3,1.6,4.3c1,1.1,2.4,1.6,4,1.6C156.6,57,157.9,56.5,158.9,55.4z"/>
		<path d="M194.3,33.2v28.6h-6v-2.5c-1.5,1.9-3.8,2.8-6.7,2.8c-2,0-3.9-0.5-5.5-1.4c-1.6-0.9-2.9-2.2-3.9-3.9
			c-0.9-1.7-1.4-3.6-1.4-5.8c0-2.2,0.5-4.2,1.4-5.8c0.9-1.7,2.2-3,3.9-3.9c1.6-0.9,3.5-1.4,5.5-1.4c2.7,0,4.9,0.9,6.4,2.6v-9.4
			H194.3z M186.6,55.4c1-1.1,1.6-2.5,1.6-4.3c0-1.8-0.5-3.3-1.6-4.3c-1-1.1-2.3-1.6-3.9-1.6c-1.6,0-2.9,0.5-4,1.6
			c-1,1.1-1.6,2.5-1.6,4.3c0,1.8,0.5,3.3,1.6,4.3c1,1.1,2.4,1.6,4,1.6C184.3,57,185.6,56.5,186.6,55.4z"/>
		<path d="M204.2,60.7c-1.8-0.9-3.2-2.3-4.2-3.9c-1-1.7-1.5-3.6-1.5-5.7c0-2.1,0.5-4,1.5-5.7c1-1.7,2.4-3,4.2-3.9
			c1.8-0.9,3.8-1.4,6.1-1.4s4.3,0.5,6.1,1.4c1.8,0.9,3.2,2.3,4.2,3.9c1,1.7,1.5,3.6,1.5,5.7c0,2.1-0.5,4-1.5,5.7
			c-1,1.7-2.4,3-4.2,3.9c-1.8,0.9-3.8,1.4-6.1,1.4S206,61.7,204.2,60.7z M214.2,55.4c1-1.1,1.5-2.5,1.5-4.3c0-1.8-0.5-3.3-1.5-4.3
			c-1-1.1-2.3-1.6-3.9-1.6c-1.6,0-2.9,0.5-4,1.6c-1,1.1-1.6,2.5-1.6,4.3c0,1.8,0.5,3.3,1.6,4.3c1,1.1,2.4,1.6,4,1.6
			C211.9,57,213.2,56.5,214.2,55.4z"/>
		<path d="M230.5,60.7c-1.8-0.9-3.3-2.3-4.3-3.9c-1-1.7-1.5-3.6-1.5-5.7c0-2.1,0.5-4,1.5-5.7c1-1.7,2.5-3,4.3-3.9
			c1.8-0.9,3.9-1.4,6.2-1.4c2.3,0,4.2,0.5,5.9,1.4c1.7,0.9,2.9,2.3,3.7,4.1l-4.8,2.6c-1.1-2-2.7-3-4.8-3c-1.6,0-3,0.5-4,1.6
			c-1.1,1.1-1.6,2.5-1.6,4.4c0,1.8,0.5,3.3,1.6,4.4c1.1,1.1,2.4,1.6,4,1.6c2.1,0,3.7-1,4.8-3l4.8,2.6c-0.8,1.7-2,3-3.7,4
			c-1.7,1-3.7,1.4-5.9,1.4C234.4,62.2,232.3,61.7,230.5,60.7z"/>
		<path d="M251.9,61.5c-1.7-0.4-3.1-1-4.1-1.7l2.1-4.5c1,0.6,2.1,1.1,3.5,1.5c1.4,0.4,2.7,0.6,4,0.6c2.6,0,4-0.7,4-2
			c0-0.6-0.4-1.1-1.1-1.3c-0.7-0.3-1.8-0.5-3.3-0.7c-1.8-0.3-3.2-0.6-4.4-0.9c-1.1-0.3-2.1-1-3-1.8c-0.8-0.9-1.3-2.1-1.3-3.8
			c0-1.4,0.4-2.6,1.2-3.6c0.8-1.1,1.9-1.9,3.4-2.5c1.5-0.6,3.3-0.9,5.3-0.9c1.5,0,3,0.2,4.5,0.5c1.5,0.3,2.7,0.8,3.7,1.4l-2.1,4.4
			c-1.9-1.1-3.9-1.6-6.2-1.6c-1.3,0-2.3,0.2-3,0.6c-0.7,0.4-1,0.9-1,1.4c0,0.7,0.4,1.1,1.1,1.4c0.7,0.3,1.9,0.5,3.4,0.8
			c1.8,0.3,3.2,0.6,4.3,0.9c1.1,0.3,2.1,0.9,2.9,1.8c0.8,0.9,1.2,2.1,1.2,3.7c0,1.3-0.4,2.5-1.2,3.6c-0.8,1-2,1.8-3.5,2.4
			c-1.5,0.6-3.3,0.9-5.5,0.9C255.4,62.2,253.6,61.9,251.9,61.5z"/>
	</g>
</g>
</svg>
