<?xml version="1.0" encoding="iso-8859-1"?>
<!-- Generator: Adobe Illustrator 12.0.0, SVG Export Plug-In . SVG Version: 6.00 Build 51448)  -->
<!DOCTYPE svg PUBLIC "-//W3C//DTD SVG 1.1//EN" "http://www.w3.org/Graphics/SVG/1.1/DTD/svg11.dtd" [
	<!ENTITY ns_svg "http://www.w3.org/2000/svg">
	<!ENTITY ns_xlink "http://www.w3.org/1999/xlink">
]>
<svg  version="1.1" id="&#x192;&#x152;&#x192;C&#x192;_x201E__x5B__1" xmlns="&ns_svg;" xmlns:xlink="&ns_xlink;"
	 width="338.209" height="84.167" viewBox="0 0 338.209 84.167"
	 style="overflow:visible;enable-background:new 0 0 338.209 84.167;" xml:space="preserve">
<rect style="fill:#FFFFFF;" width="338.209" height="84.167"/>
<g>
	<g>
		<path style="fill:#006D2C;stroke:#003D19;stroke-width:0.25;" d="M95.636,11.724l-0.048,8.278l-4.343-0.025L95.636,11.724z
			 M95.395,9.49l-9.19,16.855l1.591,0.008l2.762-5.084l5.021,0.028l0.01,5.099l1.506,0.011L97.038,9.497L95.395,9.49z"/>
		<path style="fill:#006D2C;stroke:#003D19;stroke-width:0.25;" d="M112.941,10.912l1.385,0.008c1.556,0.007,2.65,0.342,3.283,0.998
			c0.634,0.653,0.915,1.722,0.835,3.202c-0.035,0.648-0.151,1.435-0.347,2.357c-0.196,0.92-0.463,1.9-0.789,2.936
			c-0.231,0.731-0.508,1.377-0.823,1.94c-0.314,0.563-0.666,1.033-1.054,1.413c-0.532,0.516-1.126,0.88-1.786,1.088
			c-0.656,0.211-1.768,0.312-3.335,0.305l-1.272-0.008L112.941,10.912z M109.993,26.479c1.983,0.011,3.416-0.133,4.298-0.432
			c0.882-0.305,1.674-0.817,2.38-1.546c0.451-0.47,0.873-1.078,1.256-1.819c0.387-0.742,0.724-1.604,1.02-2.579
			c0.297-0.99,0.538-1.92,0.709-2.787c0.176-0.865,0.281-1.616,0.316-2.259c0.046-0.885-0.045-1.682-0.266-2.388
			c-0.222-0.711-0.578-1.299-1.056-1.777c-0.468-0.467-1-0.799-1.604-0.995c-0.604-0.194-1.537-0.294-2.801-0.304l-2.463-0.013
			l-4.602,16.881L109.993,26.479z"/>
		<path style="fill:#006D2C;stroke:#003D19;stroke-width:0.25;" d="M126.019,24.383c-0.567,0.852-1.281,1.276-2.141,1.274
			c-0.543-0.005-0.971-0.176-1.277-0.521c-0.307-0.339-0.447-0.797-0.417-1.369c0.075-1.42,1.814-2.622,5.223-3.602l0.105-0.022
			C127.084,22.119,126.587,23.533,126.019,24.383z M125.22,15.466c0.377-0.339,0.875-0.505,1.487-0.502
			c0.563,0.002,0.99,0.146,1.277,0.432c0.286,0.284,0.417,0.701,0.387,1.244c-0.04,0.744-0.231,1.322-0.578,1.737
			c-0.347,0.412-1.126,0.807-2.342,1.181c-1.84,0.573-3.062,1.168-3.664,1.792c-0.604,0.623-0.936,1.468-0.99,2.538
			c-0.046,0.87,0.181,1.578,0.678,2.124c0.503,0.543,1.182,0.819,2.031,0.824c0.503,0.002,0.979-0.088,1.422-0.279
			c0.442-0.186,0.89-0.49,1.343-0.899c0.055,0.377,0.195,0.65,0.417,0.832c0.216,0.173,0.532,0.264,0.95,0.269
			c0.12,0,0.251-0.01,0.401-0.021c0.142-0.017,0.302-0.04,0.473-0.07l0.281-1.006c-0.04,0.008-0.08,0.013-0.12,0.018
			c-0.045,0.003-0.105,0.006-0.191,0.006c-0.271-0.003-0.472-0.078-0.618-0.229c-0.146-0.147-0.211-0.347-0.201-0.59
			c0.011-0.139,0.021-0.252,0.035-0.345c0.016-0.091,0.041-0.184,0.065-0.274l1.629-6.026c0.131-0.49,0.231-0.902,0.297-1.239
			c0.07-0.337,0.11-0.628,0.12-0.875c0.035-0.636-0.216-1.169-0.749-1.606c-0.537-0.435-1.227-0.656-2.065-0.661
			c-1.056-0.007-1.931,0.271-2.634,0.832c-0.699,0.558-1.196,1.382-1.488,2.47l1.388,0.005
			C124.526,16.363,124.843,15.8,125.22,15.466z"/>
		<path style="fill:#006D2C;stroke:#003D19;stroke-width:0.25;" d="M134.734,15.149l-1.08-0.007l0.261-0.985l1.116,0.007l0.98-3.46
			l1.361,0.007l-0.975,3.461l1.739,0.01l-0.262,0.985l-1.749-0.01l-2.156,7.613c-0.176,0.616-0.302,1.078-0.372,1.38
			c-0.07,0.299-0.105,0.532-0.115,0.701c-0.016,0.307,0.05,0.525,0.195,0.661c0.156,0.133,0.407,0.2,0.765,0.203
			c0.136,0,0.256-0.003,0.352-0.01c0.096-0.008,0.186-0.018,0.281-0.033l-0.281,1c-0.206,0.028-0.397,0.048-0.563,0.063
			c-0.17,0.013-0.312,0.018-0.422,0.018c-0.567-0.005-1-0.146-1.307-0.433c-0.307-0.286-0.442-0.684-0.417-1.196
			c0.015-0.229,0.06-0.52,0.141-0.877c0.08-0.356,0.201-0.817,0.361-1.385L134.734,15.149z"/>
		<path style="fill:#006D2C;stroke:#003D19;stroke-width:0.25;" d="M143.324,24.483c-0.567,0.85-1.281,1.274-2.136,1.27
			c-0.543-0.003-0.976-0.174-1.282-0.519c-0.306-0.339-0.447-0.799-0.412-1.369c0.07-1.42,1.815-2.619,5.218-3.602l0.105-0.025
			C144.391,22.216,143.893,23.629,143.324,24.483z M142.53,15.562c0.377-0.337,0.87-0.505,1.483-0.5
			c0.563,0.002,0.99,0.146,1.276,0.432c0.291,0.287,0.422,0.701,0.392,1.247c-0.04,0.741-0.23,1.322-0.578,1.734
			c-0.352,0.412-1.131,0.804-2.342,1.181c-1.84,0.57-3.066,1.168-3.664,1.789c-0.608,0.626-0.936,1.47-0.995,2.541
			c-0.046,0.87,0.181,1.579,0.684,2.124c0.497,0.545,1.176,0.819,2.025,0.824c0.508,0.003,0.98-0.09,1.423-0.279
			c0.441-0.188,0.89-0.489,1.342-0.899c0.055,0.377,0.196,0.651,0.417,0.829c0.216,0.177,0.538,0.267,0.95,0.27
			c0.12,0,0.256-0.008,0.402-0.021c0.146-0.018,0.301-0.04,0.472-0.072l0.287-1.003c-0.04,0.005-0.086,0.015-0.126,0.015
			c-0.045,0.005-0.105,0.005-0.186,0.005c-0.271-0.002-0.478-0.077-0.624-0.227c-0.146-0.147-0.211-0.347-0.195-0.591
			c0.005-0.139,0.015-0.254,0.035-0.345c0.015-0.09,0.04-0.181,0.065-0.273l1.623-6.029c0.131-0.487,0.231-0.9,0.302-1.236
			c0.065-0.337,0.105-0.628,0.12-0.875c0.035-0.633-0.216-1.171-0.754-1.606c-0.537-0.438-1.226-0.659-2.065-0.661
			c-1.056-0.007-1.93,0.271-2.629,0.829c-0.703,0.561-1.196,1.382-1.493,2.471l1.388,0.01
			C141.832,16.461,142.153,15.896,142.53,15.562z"/>
		<path style="fill:#006D2C;stroke:#003D19;stroke-width:0.25;" d="M160.601,9.854l1.508,0.013l-3.116,11.347
			c-0.096,0.344-0.171,0.671-0.231,0.98c-0.056,0.309-0.091,0.593-0.105,0.852c-0.046,0.91,0.181,1.601,0.679,2.076
			c0.502,0.472,1.262,0.714,2.287,0.716c1.115,0.008,1.975-0.291,2.578-0.899c0.608-0.608,1.181-1.897,1.724-3.871l3.036-11.164
			l1.503,0.008L167.341,21.4c-0.629,2.299-1.362,3.833-2.207,4.599c-0.844,0.767-2.065,1.146-3.664,1.139
			c-1.422-0.011-2.513-0.356-3.277-1.046c-0.759-0.687-1.105-1.653-1.04-2.895c0.03-0.543,0.216-1.46,0.558-2.747l0.04-0.161
			L160.601,9.854z"/>
		<path style="fill:#006D2C;stroke:#003D19;stroke-width:0.25;" d="M169.89,23.463l1.326,0.008l-0.015,0.254
			c-0.035,0.729,0.12,1.294,0.473,1.691c0.347,0.396,0.869,0.598,1.558,0.603c0.705,0.003,1.303-0.233,1.789-0.713
			c0.494-0.48,0.761-1.097,0.795-1.848c0.024-0.52-0.09-0.958-0.346-1.307c-0.263-0.352-0.779-0.727-1.56-1.131
			c-1.065-0.553-1.749-1.076-2.052-1.561c-0.301-0.485-0.433-1.101-0.392-1.839c0.056-1.031,0.447-1.88,1.171-2.546
			c0.729-0.669,1.629-0.998,2.688-0.993c0.989,0.008,1.76,0.307,2.313,0.905c0.553,0.598,0.805,1.395,0.754,2.393l-0.006,0.045
			l-1.297-0.007c-0.005-0.671-0.176-1.207-0.521-1.606c-0.348-0.397-0.811-0.598-1.383-0.604c-0.674-0.002-1.228,0.221-1.658,0.674
			c-0.434,0.45-0.67,1.041-0.709,1.767c-0.025,0.465,0.096,0.865,0.352,1.199c0.262,0.332,0.784,0.701,1.563,1.104
			c1.012,0.507,1.685,1.013,2.021,1.508c0.342,0.495,0.487,1.121,0.452,1.88c-0.06,1.106-0.472,2.021-1.231,2.74
			c-0.759,0.719-1.684,1.072-2.779,1.067c-1.064-0.007-1.895-0.316-2.497-0.927c-0.604-0.611-0.88-1.431-0.824-2.456L169.89,23.463z
			"/>
		<path style="fill:#006D2C;stroke:#003D19;stroke-width:0.25;" d="M185.149,24.72c-0.568,0.85-1.282,1.274-2.143,1.27
			c-0.543-0.002-0.97-0.176-1.275-0.519c-0.307-0.342-0.447-0.799-0.418-1.369c0.076-1.42,1.814-2.622,5.223-3.602l0.105-0.022
			C186.215,22.45,185.717,23.867,185.149,24.72z M184.351,15.798c0.377-0.337,0.869-0.505,1.482-0.5
			c0.566,0.002,0.995,0.146,1.281,0.43c0.287,0.287,0.417,0.701,0.387,1.247c-0.04,0.744-0.23,1.324-0.577,1.736
			c-0.348,0.41-1.132,0.804-2.343,1.184c-1.84,0.568-3.061,1.166-3.664,1.787c-0.604,0.624-0.936,1.47-0.99,2.541
			c-0.051,0.87,0.182,1.579,0.68,2.124c0.502,0.545,1.176,0.819,2.029,0.824c0.504,0.003,0.98-0.091,1.424-0.279
			c0.442-0.188,0.89-0.487,1.342-0.899c0.056,0.377,0.195,0.651,0.412,0.829c0.222,0.176,0.537,0.267,0.949,0.27
			c0.12,0,0.256-0.005,0.407-0.021c0.142-0.019,0.302-0.037,0.468-0.073l0.286-1.002c-0.04,0.007-0.081,0.013-0.12,0.015
			c-0.046,0.003-0.105,0.005-0.191,0.005c-0.266-0.002-0.473-0.078-0.617-0.229c-0.151-0.146-0.217-0.344-0.201-0.588
			c0.01-0.139,0.02-0.254,0.035-0.345c0.015-0.09,0.04-0.184,0.07-0.273l1.623-6.029c0.131-0.488,0.23-0.9,0.297-1.236
			c0.07-0.339,0.109-0.628,0.119-0.875c0.037-0.633-0.215-1.168-0.748-1.608c-0.537-0.435-1.227-0.653-2.065-0.658
			c-1.056-0.008-1.931,0.269-2.634,0.829c-0.698,0.561-1.196,1.385-1.487,2.471l1.388,0.01
			C183.651,16.698,183.974,16.135,184.351,15.798z"/>
		<path style="fill:#006D2C;stroke:#003D19;stroke-width:0.25;" d="M198.71,16.069c0.297,0.447,0.428,1.113,0.382,1.99
			c-0.05,0.917-0.229,1.956-0.553,3.114c-0.321,1.156-0.692,2.131-1.115,2.923c-0.383,0.69-0.8,1.211-1.252,1.559
			c-0.446,0.345-0.93,0.516-1.452,0.513c-0.658-0.005-1.156-0.224-1.492-0.663c-0.338-0.435-0.482-1.061-0.438-1.873
			c0.017-0.357,0.08-0.789,0.187-1.292c0.105-0.505,0.281-1.161,0.522-1.971c0.226-0.764,0.401-1.342,0.548-1.734
			c0.137-0.395,0.276-0.731,0.422-1.013c0.357-0.727,0.784-1.279,1.268-1.662c0.492-0.384,1.006-0.573,1.549-0.57
			C197.931,15.393,198.408,15.619,198.71,16.069z M191.673,26.938l0.372-1.337c0.222,0.586,0.548,1.011,0.979,1.282
			c0.434,0.269,1,0.407,1.694,0.409c0.685,0.005,1.321-0.168,1.915-0.515c0.598-0.35,1.131-0.87,1.604-1.563
			c0.589-0.829,1.091-1.897,1.509-3.202c0.417-1.307,0.653-2.568,0.719-3.792c0.07-1.299-0.142-2.287-0.629-2.961
			c-0.487-0.676-1.241-1.02-2.257-1.025c-0.527-0.002-1.025,0.111-1.487,0.337c-0.463,0.226-0.905,0.571-1.317,1.033l1.528-5.544
			l-1.388-0.012l-4.639,16.884L191.673,26.938z"/>
		<path style="fill:#006D2C;stroke:#003D19;stroke-width:0.25;" d="M205.295,12.249l0.583-2.136l1.674,0.01l-0.583,2.136
			L205.295,12.249z M201.556,26.994l3.389-12.436l1.387,0.008l-3.383,12.438L201.556,26.994z"/>
		<path style="fill:#006D2C;stroke:#003D19;stroke-width:0.25;" d="M207.009,27.026l4.609-16.881l1.387,0.008l-4.6,16.881
			L207.009,27.026z"/>
		<path style="fill:#006D2C;stroke:#003D19;stroke-width:0.25;" d="M216.669,12.314l0.584-2.136l1.674,0.008l-0.584,2.136
			L216.669,12.314z M212.931,27.06l3.387-12.438l1.389,0.01l-3.378,12.436L212.931,27.06z"/>
		<path style="fill:#006D2C;stroke:#003D19;stroke-width:0.25;" d="M221.978,15.642l-1.086-0.005l0.262-0.985l1.115,0.005
			l0.985-3.46l1.356,0.007l-0.976,3.458l1.739,0.012l-0.256,0.985l-1.756-0.01l-2.155,7.613c-0.177,0.616-0.302,1.076-0.366,1.377
			c-0.076,0.301-0.111,0.535-0.121,0.703c-0.015,0.305,0.051,0.525,0.201,0.658c0.15,0.136,0.402,0.204,0.764,0.206
			c0.137,0,0.252-0.002,0.348-0.01c0.096-0.008,0.191-0.019,0.281-0.035l-0.281,1.003c-0.206,0.027-0.393,0.05-0.563,0.063
			s-0.312,0.021-0.422,0.018c-0.563-0.002-1.001-0.146-1.308-0.432c-0.303-0.284-0.442-0.682-0.418-1.196
			c0.011-0.231,0.062-0.523,0.142-0.88c0.081-0.354,0.201-0.814,0.362-1.38L221.978,15.642z"/>
		<path style="fill:#006D2C;stroke:#003D19;stroke-width:0.25;" d="M223.364,31.337l0.316-1.051c0.061,0,0.15,0.005,0.252,0.013
			c0.246,0.022,0.401,0.035,0.473,0.035c0.607,0.005,1.115-0.181,1.513-0.561c0.397-0.379,0.92-1.251,1.567-2.621l0.217-12.465
			l1.313,0.007l-0.142,9.945l5.339-9.915l1.452,0.008l-6.483,12.094l-0.121,0.226c-1.572,2.933-3.092,4.395-4.543,4.386
			c-0.166-0.003-0.463-0.027-0.891-0.075C223.521,31.352,223.431,31.345,223.364,31.337z"/>
		<path style="fill:#006D2C;stroke:#003D19;stroke-width:0.25;" d="M254.308,21.91c-0.522,1.882-1.287,3.302-2.303,4.262
			c-1.011,0.958-2.242,1.433-3.693,1.426c-1.394-0.008-2.438-0.423-3.127-1.244c-0.688-0.819-0.996-2.011-0.914-3.569
			c0.029-0.611,0.125-1.32,0.275-2.122c0.155-0.807,0.361-1.679,0.628-2.619c0.271-0.965,0.563-1.85,0.875-2.651
			c0.308-0.799,0.623-1.482,0.944-2.045c0.648-1.156,1.383-2.006,2.201-2.543c0.814-0.538,1.77-0.804,2.865-0.797
			c1.402,0.008,2.442,0.417,3.127,1.224c0.684,0.809,0.984,1.978,0.903,3.508c-0.01,0.201-0.021,0.347-0.028,0.442
			c-0.006,0.095-0.017,0.181-0.025,0.259l-1.469-0.01c0.011-0.067,0.021-0.148,0.025-0.238c0.01-0.093,0.021-0.219,0.024-0.377
			c0.065-1.166-0.142-2.041-0.606-2.626c-0.469-0.585-1.191-0.882-2.173-0.887c-0.784-0.005-1.463,0.213-2.03,0.653
			s-1.101,1.156-1.607,2.146c-0.258,0.507-0.514,1.123-0.773,1.839c-0.262,0.716-0.519,1.503-0.77,2.357
			c-0.277,0.962-0.483,1.82-0.629,2.576c-0.15,0.754-0.236,1.407-0.268,1.958c-0.06,1.146,0.131,2.006,0.578,2.576
			c0.442,0.573,1.146,0.859,2.111,0.864c1,0.008,1.859-0.344,2.568-1.05c0.713-0.704,1.316-1.813,1.818-3.32L254.308,21.91z"/>
		<path style="fill:#006D2C;stroke:#003D19;stroke-width:0.25;" d="M264.214,16.378c0.355,0.465,0.514,1.136,0.469,2.016
			c-0.047,0.965-0.248,2.071-0.59,3.315c-0.336,1.247-0.713,2.262-1.131,3.049c-0.32,0.588-0.693,1.027-1.115,1.319
			c-0.416,0.294-0.885,0.437-1.396,0.435c-0.709-0.005-1.241-0.239-1.6-0.704c-0.352-0.465-0.508-1.136-0.461-2.008
			c0.055-1.008,0.245-2.131,0.582-3.36c0.338-1.229,0.715-2.227,1.131-2.988c0.326-0.604,0.693-1.051,1.105-1.345
			c0.407-0.292,0.87-0.438,1.383-0.432C263.313,15.677,263.856,15.911,264.214,16.378z M257.729,26.614
			c0.567,0.677,1.428,1.016,2.594,1.022c0.783,0.005,1.492-0.188,2.126-0.576c0.634-0.384,1.182-0.965,1.653-1.744
			c0.502-0.821,0.944-1.879,1.328-3.169c0.377-1.296,0.598-2.5,0.657-3.616c0.065-1.274-0.19-2.257-0.771-2.945
			c-0.577-0.687-1.446-1.033-2.599-1.041c-0.778-0.002-1.481,0.188-2.11,0.573c-0.623,0.387-1.172,0.97-1.648,1.744
			c-0.486,0.802-0.919,1.856-1.313,3.169c-0.381,1.312-0.604,2.516-0.662,3.609C256.921,24.945,257.167,25.936,257.729,26.614z"/>
		<path style="fill:#006D2C;stroke:#003D19;stroke-width:0.25;" d="M267.185,27.366l3.394-12.436l1.317,0.005l-0.357,1.32
			c0.493-0.513,1.011-0.895,1.559-1.151c0.543-0.253,1.131-0.377,1.764-0.377c0.635,0.005,1.162,0.144,1.58,0.415
			c0.416,0.271,0.719,0.678,0.908,1.226c0.553-0.565,1.106-0.975,1.653-1.229c0.56-0.256,1.142-0.379,1.774-0.377
			c0.77,0.002,1.371,0.211,1.81,0.613c0.442,0.407,0.64,0.955,0.604,1.639c-0.01,0.229-0.035,0.455-0.07,0.681
			c-0.035,0.224-0.08,0.45-0.137,0.679l-2.482,9.067l-1.402-0.01l2.504-9.146c0.045-0.161,0.08-0.324,0.11-0.487
			c0.024-0.164,0.045-0.317,0.05-0.453c0.025-0.481-0.085-0.849-0.332-1.101c-0.246-0.256-0.611-0.384-1.09-0.387
			c-0.845-0.002-1.584,0.31-2.227,0.938c-0.648,0.633-1.127,1.526-1.438,2.677l-2.181,7.937l-1.282-0.011l2.474-9.148
			c0.045-0.158,0.086-0.321,0.115-0.485c0.025-0.166,0.04-0.316,0.051-0.452c0.024-0.483-0.086-0.85-0.332-1.104
			s-0.612-0.382-1.09-0.384c-0.846-0.005-1.585,0.309-2.232,0.94c-0.643,0.628-1.12,1.523-1.432,2.674l-2.188,7.934L267.185,27.366z
			"/>
		<path style="fill:#006D2C;stroke:#003D19;stroke-width:0.25;" d="M292.97,16.547c0.297,0.45,0.428,1.116,0.383,1.995
			c-0.051,0.92-0.236,1.963-0.559,3.126c-0.322,1.164-0.693,2.139-1.121,2.925c-0.382,0.696-0.799,1.217-1.252,1.562
			c-0.452,0.348-0.939,0.518-1.462,0.516c-0.659-0.003-1.156-0.224-1.493-0.663c-0.337-0.438-0.486-1.066-0.441-1.878
			c0.021-0.356,0.08-0.792,0.187-1.297c0.104-0.505,0.286-1.164,0.526-1.973c0.222-0.767,0.408-1.347,0.543-1.742
			c0.142-0.395,0.287-0.731,0.433-1.013c0.356-0.727,0.784-1.284,1.272-1.667c0.486-0.387,1.005-0.575,1.548-0.573
			C292.187,15.868,292.663,16.094,292.97,16.547z M284.757,31.776l1.559-5.659c0.195,0.565,0.522,0.982,0.959,1.259
			c0.442,0.279,1.007,0.42,1.699,0.425c0.68,0,1.317-0.174,1.916-0.525c0.598-0.354,1.131-0.874,1.604-1.568
			c0.593-0.832,1.091-1.899,1.508-3.207c0.417-1.307,0.658-2.574,0.725-3.797c0.069-1.337-0.146-2.33-0.648-2.98
			c-0.502-0.648-1.307-0.978-2.417-0.983c-0.474-0.002-0.937,0.118-1.388,0.357c-0.447,0.241-0.896,0.605-1.342,1.098l0.32-1.159
			l-1.297-0.01l-4.579,16.74L284.757,31.776z"/>
		<path style="fill:#006D2C;stroke:#003D19;stroke-width:0.25;" d="M301.288,25.373c-0.572,0.854-1.286,1.276-2.146,1.271
			c-0.543-0.002-0.966-0.176-1.271-0.518c-0.313-0.342-0.447-0.797-0.417-1.369c0.075-1.42,1.813-2.624,5.223-3.602l0.105-0.022
			C302.354,23.109,301.856,24.521,301.288,25.373z M300.489,16.454c0.377-0.336,0.869-0.505,1.482-0.502
			c0.567,0.005,0.989,0.151,1.281,0.435c0.281,0.284,0.412,0.701,0.387,1.244c-0.039,0.744-0.23,1.322-0.578,1.734
			c-0.347,0.412-1.125,0.809-2.342,1.186c-1.84,0.568-3.062,1.166-3.67,1.79c-0.598,0.621-0.93,1.468-0.99,2.535
			c-0.045,0.872,0.183,1.581,0.685,2.124c0.503,0.546,1.177,0.822,2.026,0.827c0.508,0.002,0.979-0.091,1.422-0.279
			c0.442-0.188,0.89-0.487,1.342-0.902c0.056,0.377,0.195,0.653,0.418,0.832c0.216,0.176,0.537,0.267,0.943,0.269
			c0.127,0,0.263-0.007,0.408-0.022c0.146-0.013,0.307-0.037,0.473-0.067l0.281-1.006c-0.035,0.008-0.076,0.013-0.121,0.016
			c-0.039,0.005-0.104,0.005-0.187,0.005c-0.267,0-0.478-0.078-0.623-0.227c-0.142-0.15-0.206-0.344-0.196-0.593
			c0.006-0.136,0.021-0.249,0.035-0.342c0.021-0.091,0.041-0.184,0.065-0.276l1.624-6.024c0.136-0.492,0.236-0.904,0.302-1.241
			c0.069-0.337,0.11-0.628,0.12-0.872c0.029-0.633-0.217-1.171-0.754-1.608c-0.538-0.435-1.223-0.656-2.061-0.661
			c-1.062-0.005-1.937,0.271-2.635,0.834c-0.699,0.558-1.195,1.38-1.488,2.47l1.389,0.008
			C299.79,17.351,300.112,16.791,300.489,16.454z"/>
		<path style="fill:#006D2C;stroke:#003D19;stroke-width:0.25;" d="M306.41,27.587l3.388-12.438l1.317,0.01l-0.362,1.319
			c0.514-0.521,1.035-0.907,1.578-1.156c0.538-0.254,1.121-0.377,1.744-0.375c0.773,0.008,1.378,0.211,1.82,0.616
			c0.432,0.41,0.633,0.953,0.598,1.639c-0.01,0.229-0.035,0.455-0.07,0.679c-0.035,0.224-0.086,0.452-0.15,0.678l-2.469,9.067
			l-1.377-0.007l2.479-9.148c0.046-0.158,0.08-0.321,0.105-0.485c0.029-0.166,0.051-0.314,0.055-0.453
			c0.025-0.482-0.084-0.849-0.33-1.105c-0.248-0.251-0.608-0.379-1.092-0.382c-0.83-0.008-1.567,0.312-2.222,0.95
			c-0.653,0.638-1.131,1.525-1.433,2.664l-2.182,7.931L306.41,27.587z"/>
		<path style="fill:#006D2C;stroke:#003D19;stroke-width:0.25;" d="M315.171,31.854l0.316-1.051c0.061,0,0.146,0.005,0.252,0.013
			c0.246,0.025,0.402,0.038,0.468,0.038c0.612,0.002,1.114-0.184,1.519-0.563c0.396-0.379,0.92-1.251,1.563-2.621l0.216-12.465
			l1.317,0.01l-0.143,9.942l5.333-9.915l1.458,0.008l-6.488,12.094l-0.115,0.229c-1.578,2.931-3.086,4.391-4.545,4.383
			c-0.166-0.003-0.461-0.027-0.889-0.073C315.327,31.872,315.235,31.862,315.171,31.854z"/>
	</g>
	<rect x="86.945" y="35.142" style="fill:#006D2C;" width="242.41" height="1.907"/>
	<g>
		<g>
			<path style="fill:#006D2C;" d="M51.941,52.395l-3.272-2.112L12.087,69.386v1.146c0,2.809,2.279,5.088,5.092,5.088h28.62
				L51.941,52.395z"/>
			<path style="fill:#006D2C;" d="M73.535,9.08h-1.998L55.369,44.033l9.987,15.063c0,0,0.229,0.643-0.107,1.051
				c-0.337,0.406-1.111,0.146-1.111,0.146l-3.46-2.244l3.37,17.572h9.487c2.814,0,5.091-2.279,5.091-5.088V14.169
				C78.626,11.359,76.35,9.08,73.535,9.08z"/>
			<path style="fill:#006D2C;" d="M20.182,9.08h-3.003c-2.813,0-5.092,2.279-5.092,5.089v3.005L20.182,9.08z"/>
			<polygon style="fill:#006D2C;" points="29.875,9.08 24.093,9.08 12.087,21.085 12.087,26.868 			"/>
			<polygon style="fill:#006D2C;" points="39.572,9.08 33.786,9.08 12.087,30.776 12.087,36.56 			"/>
			<polygon style="fill:#006D2C;" points="49.265,9.08 43.482,9.08 12.087,40.473 12.087,46.257 			"/>
			<g>
				<polygon style="fill:#006D2C;" points="62.869,9.08 12.087,59.861 12.087,65.511 68.519,9.08 				"/>
				<polygon style="fill:#006D2C;" points="58.961,9.08 53.176,9.08 12.087,50.166 12.087,55.953 				"/>
			</g>
		</g>
	</g>
</g>
<path style="fill:#006D2C;" d="M92.196,62.248l1.946-12.312l1.968,12.312H92.196z M98.197,75.31h5.789l-6.738-34.25h-6.08
	l-6.682,34.25h5.645l0.89-5.625h6.273L98.197,75.31z"/>
<path style="fill:#006D2C;" d="M105.797,41.06h5.141l6.734,18.971V41.06h5.188v34.25h-5.188l-6.688-18.84v18.84h-5.188
	L105.797,41.06L105.797,41.06z"/>
<path style="fill:#006D2C;" d="M125.3,41.06h16.813v8.438h-5.625V75.31h-5.563V49.498H125.3V41.06z"/>
<path style="fill:#006D2C;" d="M144.596,41.06h14.813v7.313h-9.25v5.438h8.563v7h-8.563v6.75h9.5v7.75h-15.063V41.06z"/>
<path style="fill:#006D2C;" d="M162.704,41.06h5.141l6.734,18.971V41.06h5.188v34.25h-5.188l-6.688-18.84v18.84h-5.188
	L162.704,41.06L162.704,41.06z"/>
<path style="fill:#006D2C;" d="M183.519,41.06h5.142l6.733,18.971V41.06h5.188v34.25h-5.188l-6.688-18.84v18.84h-5.188V41.06
	L183.519,41.06z"/>
<path style="fill:#006D2C;" d="M209.926,62.248l1.946-12.312l1.968,12.312H209.926z M215.927,75.31h5.789l-6.738-34.25h-6.08
	l-6.682,34.25h5.645l0.891-5.625h6.273L215.927,75.31z"/>
<path style="fill:#006D2C;" d="M235.858,41.06h5.5v11.938h6V41.06h5.563v34.25h-5.563V61.435h-6V75.31h-5.5V41.06z"/>
<path style="fill:#006D2C;" d="M261.942,50.757c0.681-1.506,1.582-2.26,2.707-2.26c1.156,0,2.074,0.742,2.754,2.226
	c0.681,1.483,1.021,3.834,1.021,7.051c0,3.821-0.323,6.472-0.973,7.946c-0.648,1.479-1.566,2.215-2.755,2.215
	c-1.155,0-2.073-0.753-2.754-2.262c-0.68-1.506-1.02-3.984-1.02-7.434C260.924,54.759,261.265,52.266,261.942,50.757z
	 M256.651,68.195c0.82,2.66,1.894,4.605,3.22,5.834c1.325,1.229,3.004,1.844,5.032,1.844c1.981,0,3.641-0.711,4.975-2.135
	s2.354-3.414,3.055-5.974c0.702-2.56,1.055-5.839,1.055-9.837c0-5.506-0.809-9.788-2.424-12.846
	c-1.614-3.057-3.912-4.585-6.894-4.585c-2.901,0-5.169,1.556-6.8,4.667c-1.631,3.11-2.446,7.459-2.446,13.043
	C255.424,62.207,255.833,65.535,256.651,68.195z"/>
<path style="fill:#006D2C;" d="M288.115,41.06h5.5v20.395c0,2.021-0.169,3.932-0.505,5.729s-0.854,3.367-1.557,4.713
	s-1.437,2.291-2.201,2.835c-1.078,0.763-2.373,1.144-3.887,1.144c-0.875,0-1.826-0.117-2.857-0.351
	c-1.029-0.233-1.893-0.694-2.586-1.388c-0.695-0.692-1.328-1.678-1.897-2.952s-0.964-2.591-1.183-3.942
	c-0.344-2.179-0.516-4.107-0.516-5.787V41.06h5.5v20.867c0,1.865,0.275,3.322,0.826,4.371c0.551,1.05,1.307,1.574,2.268,1.574
	s1.717-0.518,2.268-1.551s0.827-2.498,0.827-4.396V41.06z"/>
<path style="fill:#006D2C;" d="M295.806,63.939l5.25-0.63c0.108,1.635,0.334,2.88,0.676,3.735c0.574,1.385,1.389,2.076,2.443,2.076
	c0.775,0,1.376-0.353,1.803-1.06c0.428-0.707,0.642-1.526,0.642-2.459c0-0.886-0.203-1.677-0.606-2.376
	c-0.406-0.699-1.349-1.359-2.828-1.98c-2.431-1.039-4.16-2.422-5.188-4.147c-1.044-1.726-1.564-3.925-1.564-6.599
	c0-1.756,0.269-3.416,0.807-4.979c0.537-1.563,1.342-2.79,2.41-3.685c1.067-0.894,2.531-1.341,4.389-1.341
	c2.293,0,4.04,0.815,5.24,2.445c1.201,1.632,1.92,4.224,2.154,7.78l-5.188,0.587c-0.142-1.55-0.437-2.677-0.884-3.382
	c-0.447-0.703-1.063-1.057-1.85-1.057c-0.645,0-1.131,0.262-1.461,0.781s-0.494,1.152-0.494,1.898c0,0.543,0.131,1.033,0.395,1.468
	c0.262,0.45,0.884,0.87,1.865,1.258c2.414,0.994,4.144,2.001,5.188,3.021c1.043,1.021,1.803,2.283,2.278,3.793
	c0.475,1.511,0.713,3.197,0.713,5.064c0,2.193-0.319,4.217-0.957,6.068s-1.524,3.256-2.659,4.213s-2.564,1.436-4.291,1.436
	c-3.031,0-5.136-1.123-6.31-3.369C296.603,70.253,295.944,67.402,295.806,63.939z"/>
<path style="fill:#006D2C;" d="M314.289,41.06h14.813v7.313h-9.25v5.438h8.563v7h-8.563v6.75h9.5v7.75h-15.063V41.06z"/>
</svg>
