<?xml version="1.0" encoding="iso-8859-1"?>
<!-- Generator: Adobe Illustrator 12.0.0, SVG Export Plug-In . SVG Version: 6.00 Build 51448)  -->
<!DOCTYPE svg PUBLIC "-//W3C//DTD SVG 1.1//EN" "http://www.w3.org/Graphics/SVG/1.1/DTD/svg11.dtd" [
	<!ENTITY ns_svg "http://www.w3.org/2000/svg">
	<!ENTITY ns_xlink "http://www.w3.org/1999/xlink">
]>
<svg  version="1.1" id="Layer_1" xmlns="&ns_svg;" xmlns:xlink="&ns_xlink;" width="147.622" height="42.231"
	 viewBox="551.333 733.721 147.622 42.231" style="overflow:visible;enable-background:new 551.333 733.721 147.622 42.231;"
	 xml:space="preserve">
<g>
	<g>
		<path style="fill:#3B4063;" d="M616.2,743.184l-2.037,10.659l-0.158,1.243h-0.063l-0.158-1.243l-2.023-10.659h-4.183v23.317h3.169
			v-15.646h0.195l0.123,0.988l2.195,14.658h1.463l2.184-14.658l0.121-0.988h0.195v15.635h3.17v-23.306H616.2z"/>
		<path style="fill:#3B4063;" d="M630.979,763.49v-10.659c0-1.146-0.439-2.122-1.17-2.816c-0.732-0.695-1.684-1.11-2.732-1.11
			c-1.232,0-2.316,0.513-3.072,1.366c-0.758,0.854-1.232,2-1.232,3.268v0.732h3.207v-0.829c0-0.281,0.037-0.573,0.061-0.83
			c0.098-0.512,0.318-0.914,0.854-0.914c0.416,0,0.672,0.22,0.793,0.536c0.098,0.317,0.098,0.757,0.098,1.049v1.902
			c-0.121,0.354-0.73,0.635-1.523,1.049c-0.793,0.415-1.744,1.013-2.514,1.964c-0.756,0.951-1.328,2.341-1.328,4.28
			c0,1.805,0.439,2.891,0.988,3.488c0.512,0.634,1.17,0.792,1.584,0.792c0.635,0,1.244-0.256,1.684-0.598
			c0.439-0.354,0.732-0.768,0.891-1.049h0.219c0,0.22,0,1.049,0.281,1.403h3.146C631.077,765.733,630.979,765.038,630.979,763.49z
			 M627.784,762.563c0,0.597-0.598,1.048-1.328,1.048c-0.379,0-0.598-0.28-0.732-0.67c-0.121-0.354-0.158-0.732-0.158-0.951
			c0-1.646,0.67-3.208,2.219-3.866V762.563z"/>
		<path style="fill:#3B4063;" d="M637.04,749.819c-0.512,0.512-0.73,1.049-0.756,1.268v-1.938h-3.207v17.354h3.207v-12.061
			c0-0.537,0.098-1.073,0.695-1.586c0.512-0.476,1.109-0.536,1.623-0.536c0.279,0,0.598,0.036,0.889,0.134v-3.561
			C638.309,748.892,637.553,749.343,637.04,749.819z"/>
		<path style="fill:#3B4063;" d="M646.565,754.794l2.316-5.646h-2.891l-1.549,4.536l-0.195,0.573h-0.158v-11.073h-3.207v23.317
			h3.207v-6l0.416-1.012l0.098-0.257h0.158l0.061,0.257l1.586,7.012h3.072L646.565,754.794z"/>
		<path style="fill:#3B4063;" d="M655.76,749.148v13.671c-0.098,0.158-0.195,0.316-0.293,0.414c-0.221,0.22-0.414,0.415-0.756,0.415
			c-0.379,0-0.77-0.098-0.77-0.756v-13.744h-3.207v14.207c0,0.731,0.195,1.586,0.574,2.22c0.377,0.658,0.986,1.171,1.842,1.171
			c0.279,0,0.572-0.098,0.854-0.256c0.572-0.317,1.012-0.769,1.389-1.146c0.16-0.159,0.281-0.28,0.354-0.317v1.464h3.209v-17.342
			H655.76z"/>
		<path style="fill:#3B4063;" d="M669.151,750.038c-0.416-0.634-1.014-1.146-1.904-1.146c-0.279,0-0.596,0.061-0.889,0.219
			c-0.635,0.281-1.111,0.671-1.646,1.171v-1.146h-3.207v23.317h3.207v-7.098c0.279,0.256,0.535,0.476,0.828,0.695
			c0.477,0.354,1.111,0.695,1.721,0.695c0.891,0,1.486-0.513,1.902-1.171c0.377-0.634,0.572-1.488,0.572-2.22v-11.073
			C669.723,751.563,669.528,750.697,669.151,750.038z M666.516,762.697c0,0.598-0.379,1.049-0.854,1.049
			c-0.477,0-0.951-0.537-0.951-1.049v-9.744c0-0.598,0.475-1.049,0.951-1.049c0.475,0,0.854,0.439,0.854,1.049V762.697z"/>
		<path style="fill:#CA4D5E;" d="M682.686,743.184v18.524c0,0.354-0.035,0.635-0.121,0.854c-0.123,0.475-0.414,0.854-1.012,0.854
			c-0.281,0-0.514-0.098-0.672-0.257c-0.316-0.354-0.475-0.792-0.475-1.463v-18.513h-3.428v18.524
			c0.037,0.951,0.221,1.806,0.574,2.537c0.279,0.634,0.693,1.231,1.328,1.707c0.635,0.513,1.525,0.793,2.672,0.793
			s2-0.28,2.633-0.793c0.635-0.476,1.074-1.085,1.367-1.707c0.354-0.731,0.535-1.586,0.572-2.537v-18.524H682.686z"/>
		<path style="fill:#CA4D5E;" d="M695.381,750.855l3.146-7.683H695.2l-2.855,7.769l-0.158,0.378h-0.121v-8.146h-3.428v23.317h3.428
			v-8.244l0.793-1.902l0.195-0.476h0.098l0.096,0.476l2.379,10.146h3.33L695.381,750.855z"/>
	</g>
	<rect x="601.455" y="738.038" style="fill:#7D8CA3;" width="0.536" height="33.598"/>
	<g>
		<path style="fill:#7D8CA3;" d="M562.833,745.379h-0.037c0,0,0,0,0.013-0.012C562.809,745.368,562.82,745.368,562.833,745.379z"/>
		<g>
			<g>
				<path style="fill:#7D8CA3;" d="M569.796,744.49l-0.28,0.012c-0.012,0.036-0.024,0.062-0.024,0.098l0,0
					c-0.036,0.098-0.085,0.195-0.134,0.293c-0.013,0.024-0.024,0.049-0.037,0.073c0,0.012-0.012,0.012-0.012,0.024
					c-0.158,0.219-0.366,0.438-0.634,0.634c-0.037,0.098-0.073,0.207-0.122,0.305c0,0.013,0,0.013-0.013,0.024
					c-0.024,0.037-0.036,0.085-0.061,0.122l0,0c-0.013,0.012-0.013,0.024-0.024,0.036c0,0.013-0.013,0.013-0.013,0.024
					c-0.012,0.024-0.036,0.062-0.049,0.086l0,0c0.086-0.037,0.159-0.073,0.232-0.122c0.036-0.024,0.073-0.036,0.098-0.062
					c0.023-0.012,0.048-0.023,0.072-0.048c0.232-0.146,0.439-0.306,0.598-0.488c0.281-0.305,0.427-0.646,0.427-1.012
					C569.796,744.501,569.796,744.49,569.796,744.49z M569.224,743.355c0.158,0.195,0.268,0.402,0.305,0.635
					c0,0.024,0.012,0.061,0.012,0.085v0.012l-0.22,0.013l-0.536,0.024v0.012l0.939-0.036
					C569.65,743.831,569.467,743.586,569.224,743.355z M568.406,744.55l-0.183,0.013c0,0.023-0.013,0.048-0.013,0.072l0,0
					c-0.012,0.049-0.024,0.11-0.036,0.159c-0.024,0.073-0.049,0.146-0.073,0.22c-0.195,0.463-0.562,0.878-1.037,1.17
					c-0.036,0.135-0.085,0.257-0.134,0.366c0.146-0.061,0.28-0.122,0.402-0.195c0.049-0.024,0.085-0.049,0.122-0.073
					c0.061-0.036,0.109-0.073,0.158-0.122l0,0c0,0,0.013,0,0.013-0.012l0,0l0,0l0,0c0,0,0.012,0,0.012-0.013
					c0.013-0.012,0.013-0.012,0.024-0.024l0,0c0.146-0.121,0.28-0.256,0.391-0.414c0.134-0.195,0.243-0.415,0.292-0.646
					c0.037-0.158,0.062-0.317,0.062-0.487V744.55z M567.967,743.331c0.013,0.013,0.024,0.037,0.037,0.049
					c0.036,0.049,0.061,0.098,0.085,0.158c0.013,0.049,0.037,0.086,0.049,0.122c0.024,0.073,0.049,0.159,0.073,0.232
					s0.036,0.158,0.036,0.243v0.013l-0.976,0.049l0.622-0.024l0.232-0.013l0.243-0.012
					C568.296,743.868,568.15,743.586,567.967,743.331z M567.016,744.611h-0.085c0,0.135-0.024,0.281-0.037,0.403
					c0,0.012,0,0.023-0.012,0.036c-0.037,0.171-0.073,0.342-0.135,0.5c-0.023,0.085-0.061,0.171-0.097,0.244
					c-0.208,0.427-0.5,0.731-0.854,0.805c-0.012,0-0.024,0-0.024,0c-0.048,0-0.097,0.012-0.134,0.012c-0.024,0-0.061,0-0.085,0l0,0
					c-0.013,0-0.013,0-0.024,0c-0.171-0.024-0.342-0.109-0.5-0.256c0.207,0.22,0.451,0.354,0.695,0.378c0.012,0,0.023,0,0.036,0
					c0.049,0,0.098,0,0.146,0c0.036,0,0.061-0.012,0.085-0.012l0,0l0,0c0,0,0.013,0,0.024-0.013c0.184-0.049,0.354-0.158,0.5-0.329
					c0.098-0.109,0.184-0.244,0.256-0.402c0.024-0.036,0.037-0.085,0.049-0.122c0-0.012,0-0.012,0.013-0.024
					c0.012-0.036,0.036-0.085,0.049-0.122c0.049-0.171,0.085-0.354,0.122-0.549c0.024-0.17,0.024-0.354,0.024-0.549H567.016z
					 M566.65,743.111c0.061,0.122,0.109,0.257,0.146,0.403c0.037,0.121,0.073,0.256,0.086,0.402
					c0.024,0.098,0.036,0.207,0.036,0.305h0.062C566.931,743.819,566.809,743.441,566.65,743.111z M566.687,742.417
					C566.687,742.428,566.687,742.428,566.687,742.417c0.037,0.024,0.073,0.024,0.098,0.036
					C566.747,742.441,566.711,742.428,566.687,742.417z M565.577,742.208h-0.037h-0.146c-0.329,0.037-0.622,0.281-0.816,0.659
					c-0.11,0.195-0.184,0.438-0.232,0.707c-0.024,0.134-0.049,0.28-0.049,0.439c-0.012,0.109-0.012,0.219,0,0.329h0.086
					c0.024-0.513,0.158-0.988,0.354-1.342s0.464-0.585,0.769-0.658h0.024l0.134-0.013c0.231,0,0.451,0.11,0.634,0.305
					C566.089,742.392,565.845,742.246,565.577,742.208z M564.613,746.526c-0.036-0.012-0.085-0.024-0.122-0.036
					C564.54,746.514,564.577,746.526,564.613,746.526C564.626,746.538,564.613,746.538,564.613,746.526z M564.455,745.257
					c-0.037-0.158-0.062-0.329-0.073-0.512v-0.013h-0.073c0.024,0.159,0.049,0.305,0.085,0.439c0,0.012,0.013,0.024,0.013,0.036
					c0.049,0.184,0.109,0.354,0.183,0.513c0,0.012,0,0.012,0.013,0.024C564.553,745.599,564.504,745.441,564.455,745.257z
					 M563.247,743.27c-0.072,0.098-0.134,0.195-0.183,0.305c-0.024,0.049-0.049,0.109-0.073,0.171
					c-0.012,0.049-0.024,0.098-0.036,0.134c-0.024,0.073-0.037,0.135-0.037,0.207c0,0.013,0,0.037-0.012,0.049
					c-0.013,0.086-0.013,0.171-0.013,0.257v0.024l0.184-0.013c0.049-0.305,0.158-0.598,0.341-0.854
					c0.146-0.22,0.329-0.415,0.549-0.585c0.086-0.062,0.171-0.122,0.269-0.184c0.012-0.024,0.012-0.049,0.024-0.061
					c0.012-0.024,0.012-0.049,0.024-0.073c0.024-0.085,0.061-0.158,0.085-0.22C563.894,742.599,563.504,742.892,563.247,743.27z
					 M564.102,744.746l-1.171,0.049c0.012,0.036,0.024,0.073,0.036,0.109l0,0c0.013,0.062,0.037,0.11,0.062,0.159
					c0.024,0.072,0.061,0.146,0.098,0.219c0.061,0.122,0.134,0.232,0.219,0.329c-0.073-0.109-0.134-0.231-0.17-0.354
					c-0.049-0.146-0.086-0.292-0.098-0.451v-0.012L564.102,744.746L564.102,744.746z M562.406,743.05
					c-0.098,0.073-0.195,0.134-0.28,0.22c-0.024,0.024-0.049,0.036-0.073,0.061s-0.049,0.049-0.073,0.086
					c-0.269,0.28-0.439,0.609-0.464,0.951c0,0.036,0,0.061,0,0.098v0.024l0.231-0.013h0.062c0.109-0.402,0.402-0.793,0.842-1.122
					c0.024-0.073,0.049-0.146,0.085-0.207c0.061-0.134,0.134-0.269,0.207-0.391C562.747,742.831,562.564,742.941,562.406,743.05z
					 M562.504,744.831L562.504,744.831C562.504,744.819,562.504,744.819,562.504,744.831c0-0.012,0-0.012,0-0.012h-0.024h-0.073
					h-0.037l-0.122,0.012h-0.036l-0.22,0.013l0,0l0,0c0,0,0,0,0,0.012c-0.012,0-0.024,0-0.036,0l0,0l-0.378,0.024
					c0,0.013,0.012,0.024,0.012,0.037c0.013,0.036,0.024,0.073,0.037,0.109l0,0c0.036,0.098,0.098,0.183,0.158,0.269
					c0,0.012,0.012,0.012,0.012,0.024c0.013,0.024,0.037,0.049,0.049,0.073c0.013,0.012,0.013,0.012,0.024,0.024
					c0.073,0.085,0.146,0.158,0.232,0.231c-0.11-0.134-0.195-0.269-0.257-0.415c-0.036-0.109-0.061-0.219-0.073-0.329v-0.012
					l0.428-0.024L562.504,744.831z"/>
				<path style="fill:#7D8CA3;" d="M590.991,765.319c-0.207,0.683-0.72,1.329-1.463,1.878c-0.073,0.22-0.171,0.427-0.269,0.634
					c-0.061,0.11-0.122,0.22-0.183,0.329l0,0l0,0c-0.037,0.062-0.073,0.11-0.098,0.171c-0.049,0.073-0.098,0.135-0.146,0.207
					c0.098-0.036,0.195-0.085,0.293-0.121l0,0c0.098-0.049,0.194-0.098,0.292-0.146c0.195-0.098,0.366-0.207,0.537-0.305
					c1.085-0.684,1.744-1.586,1.78-2.598c0-0.013,0-0.024,0-0.037h-0.744V765.319z M591.65,764.575
					c-0.208-0.72-0.72-1.402-1.476-1.988c-0.428-0.329-0.928-0.634-1.5-0.902c0.036,0.049,0.072,0.098,0.109,0.146
					c0.158,0.073,0.305,0.159,0.439,0.232c0.097,0.061,0.183,0.109,0.28,0.17c0.22,0.135,0.402,0.293,0.585,0.451
					c0.086,0.073,0.158,0.159,0.244,0.232c0.451,0.487,0.72,1.049,0.744,1.658v0.012h0.573V764.575z M589.064,765.319h-0.5
					c-0.049,0.28-0.146,0.536-0.256,0.792c-0.171,0.391-0.427,0.757-0.72,1.086l0,0c-0.109,0.122-0.22,0.231-0.342,0.341
					c-0.268,0.232-0.548,0.452-0.865,0.635c-0.013,0.036-0.024,0.073-0.037,0.109c-0.012,0.037-0.024,0.073-0.036,0.122v0.013l0,0
					c-0.073,0.219-0.158,0.414-0.256,0.609c0.109-0.036,0.207-0.073,0.305-0.109c0.231-0.098,0.463-0.208,0.671-0.33
					c0.061-0.036,0.109-0.061,0.171-0.097c0.072-0.049,0.158-0.11,0.231-0.159c0.158-0.109,0.305-0.231,0.451-0.365
					c0.036-0.037,0.061-0.062,0.098-0.098c0.012-0.013,0.024-0.024,0.036-0.037c0.037-0.049,0.086-0.085,0.122-0.134
					c0.013-0.013,0.024-0.024,0.037-0.037c0.036-0.036,0.072-0.085,0.097-0.122c0.024-0.036,0.049-0.072,0.086-0.109
					c0.134-0.183,0.244-0.365,0.342-0.573c0.024-0.049,0.048-0.109,0.072-0.158l0,0c0.013-0.013,0.013-0.024,0.024-0.037
					c0.171-0.402,0.257-0.829,0.269-1.28C589.064,765.343,589.064,765.331,589.064,765.319z M589.004,764.575
					c-0.037-0.195-0.086-0.391-0.159-0.585l0,0l0,0c-0.292-0.817-0.854-1.549-1.585-2.122l0,0l0,0l0,0
					c-0.098-0.073-0.195-0.146-0.293-0.22c0,0-0.012,0-0.012-0.013c0,0-0.013,0-0.013-0.012c-0.098-0.061-0.183-0.122-0.28-0.183
					c-0.012,0-0.012-0.013-0.024-0.013c-0.012,0-0.012-0.012-0.024-0.012c-0.098-0.062-0.195-0.11-0.293-0.159
					c-0.012-0.012-0.036-0.012-0.049-0.024c-0.109-0.061-0.219-0.109-0.341-0.158c0.024,0.061,0.061,0.122,0.085,0.183l0,0
					c0.159,0.062,0.317,0.122,0.464,0.195c0.256,0.134,0.5,0.28,0.72,0.451c0.414,0.317,0.756,0.707,1,1.146
					c0.207,0.366,0.341,0.769,0.39,1.207c0,0.037,0.013,0.073,0.013,0.098l0,0c0.012,0.073,0.012,0.146,0.012,0.208v0.012H589.004z
					 M586.138,765.319c-0.073,0.805-0.293,1.549-0.609,2.158c-0.013,0.024-0.024,0.037-0.024,0.049
					c-0.28,0.512-0.635,0.927-1.024,1.171c-0.062,0.036-0.122,0.073-0.195,0.109c-0.146,0.073-0.305,0.122-0.464,0.146
					c-0.012,0-0.036,0.013-0.049,0.013l0,0c-0.036,0-0.072,0-0.109,0l0,0c-0.049,0-0.098,0-0.158,0
					c-0.708-0.049-1.464-0.902-1.854-1.793c0,0,0.134,0.451,0.194,0.524l0,0c0.306,0.585,0.708,1.061,1.146,1.341
					c0.22,0.146,0.464,0.244,0.708,0.281c0.024,0,0.036,0,0.061,0.012l0,0c0.012,0,0.024,0,0.036,0c0.037,0,0.062,0,0.086,0l0,0
					c0.061,0,0.109,0,0.171,0c0.914-0.061,1.683-0.914,2.073-2.195l0,0c0-0.012,0.012-0.024,0.012-0.036
					c0.024-0.098,0.062-0.195,0.086-0.305v-0.013l0,0l0,0l0,0l0,0c0.012-0.036,0.012-0.073,0.023-0.122c0,0,0,0,0-0.012
					c0-0.013,0-0.024,0.013-0.037c0-0.012,0-0.012,0-0.024c0-0.036,0.012-0.061,0.012-0.097c0,0,0,0,0-0.013
					c0-0.012,0-0.024,0-0.036c0.013-0.049,0.024-0.11,0.024-0.171c0.013-0.037,0.013-0.073,0.013-0.11
					c0.012-0.097,0.024-0.207,0.036-0.305c0-0.036,0-0.073,0.013-0.109l0,0l0,0c0-0.013,0-0.024,0-0.037
					c0-0.049,0-0.098,0.012-0.146c0-0.062,0-0.122,0-0.184v-0.036h-0.231V765.319z M586.333,764.343
					c-0.207-1.72-1.024-3.159-2.049-3.635c-0.013,0-0.024-0.012-0.037-0.012c-0.134-0.062-0.28-0.11-0.427-0.134
					c-0.024,0-0.036,0-0.061,0c-0.098,0-0.195,0-0.293-0.013c-0.646,0.036-1.22,0.487-1.634,1.207
					c-0.171,0.28-0.305,0.61-0.415,0.964c-0.171,0.549-0.268,1.171-0.28,1.842h0.231c0-0.062,0.013-0.122,0.024-0.184
					c0.195-1.573,0.939-2.902,1.878-3.329c0.013,0,0.024-0.013,0.037-0.013c0.122-0.048,0.256-0.097,0.391-0.109
					c0.012,0,0.036,0,0.048,0l0,0c0.086,0,0.184,0,0.269-0.012c0.598,0.036,1.122,0.451,1.5,1.098
					c0.146,0.256,0.28,0.561,0.378,0.89c0.159,0.5,0.244,1.062,0.257,1.659h0.207C586.345,764.501,586.345,764.428,586.333,764.343z
					 M581.589,768.806c-0.024-0.061-0.061-0.109-0.085-0.171c-0.049-0.012-0.086-0.036-0.122-0.049
					c-0.28-0.109-0.537-0.243-0.769-0.402c-0.22-0.146-0.438-0.305-0.622-0.487c-0.354-0.342-0.634-0.731-0.829-1.171l0,0
					c-0.012-0.012-0.012-0.024-0.024-0.036c-0.146-0.366-0.244-0.757-0.244-1.171l0,0h-0.378c0.062,0.305,0.159,0.609,0.293,0.902
					c0.073,0.171,0.171,0.342,0.269,0.5c0.024,0.036,0.049,0.073,0.073,0.109c0,0,0,0,0.012,0.013
					c0.062,0.098,0.134,0.183,0.195,0.28c0.036,0.036,0.073,0.085,0.098,0.122c0.012,0.012,0.024,0.024,0.036,0.049
					c0.037,0.036,0.062,0.073,0.098,0.109l0,0l0,0c0.049,0.049,0.098,0.098,0.146,0.159c0.073,0.072,0.146,0.146,0.22,0.207
					c0.158,0.146,0.341,0.293,0.524,0.414C580.82,768.441,581.199,768.648,581.589,768.806
					C581.602,768.819,581.589,768.819,581.589,768.806z M581.357,765.319L581.357,765.319h-0.086
					c0.037,0.122,0.013,0.646,0.049,0.768C581.32,766.099,581.369,765.379,581.357,765.319z M580.796,761.148
					c-0.28,0.146-0.549,0.305-0.792,0.487l0,0c-0.049,0.037-0.098,0.073-0.135,0.11c-0.024,0.024-0.049,0.036-0.073,0.061l0,0
					c-0.024,0.013-0.049,0.037-0.061,0.062c-0.073,0.061-0.134,0.122-0.195,0.183c-0.049,0.049-0.085,0.098-0.134,0.146
					c-0.024,0.024-0.049,0.049-0.062,0.073c-0.012,0.024-0.036,0.036-0.049,0.061c-0.012,0.024-0.036,0.037-0.049,0.062
					c-0.061,0.073-0.109,0.146-0.158,0.219c-0.012,0.013-0.024,0.024-0.024,0.037c-0.049,0.073-0.098,0.146-0.134,0.22v0.012
					c-0.11,0.195-0.195,0.402-0.269,0.61c-0.085,0.256-0.146,0.536-0.171,0.816l0,0c0,0.037,0,0.062,0,0.098
					c0,0.049-0.012,0.098-0.012,0.134c0,0.013,0,0.025,0,0.037h0.5c0.036-0.171,0.073-0.342,0.134-0.512l0,0
					c0.269-0.744,0.78-1.428,1.464-1.952l0,0c0.183-0.146,0.378-0.28,0.585-0.402c0.098-0.305,0.207-0.585,0.329-0.854
					C581.235,760.941,581.016,761.038,580.796,761.148z M578.735,768.063c-0.061-0.025-0.109-0.049-0.158-0.073
					c-0.171-0.086-0.342-0.184-0.5-0.281c-0.988-0.634-1.598-1.451-1.635-2.378l0,0h-0.585c0.28,1.013,1.183,1.927,2.487,2.635
					c0.159,0.085,0.33,0.17,0.5,0.256C578.809,768.16,578.771,768.111,578.735,768.063z M578.431,761.49
					c-0.086,0.036-0.159,0.073-0.244,0.121c-0.024,0.013-0.049,0.024-0.085,0.037c-0.11,0.049-0.208,0.109-0.306,0.158
					c-0.109,0.062-0.207,0.122-0.305,0.184c-0.341,0.219-0.646,0.476-0.89,0.743c-0.5,0.537-0.793,1.146-0.817,1.805
					c0,0.013,0,0.025,0,0.037h0.744c0.195-0.646,0.671-1.269,1.354-1.793c0.036-0.024,0.073-0.061,0.122-0.085l0,0
					c0.012-0.024,0.012-0.049,0.024-0.073c0.024-0.061,0.049-0.122,0.073-0.183c0.012-0.024,0.012-0.049,0.024-0.062
					c0.012-0.012,0.024-0.036,0.024-0.061c0.024-0.049,0.049-0.11,0.073-0.159c0.012-0.024,0.023-0.049,0.036-0.073
					c0.012-0.023,0.024-0.049,0.036-0.072c0.024-0.049,0.049-0.086,0.073-0.135c0.013-0.024,0.024-0.049,0.037-0.085
					c0.024-0.037,0.036-0.073,0.061-0.098c0-0.013,0.013-0.024,0.013-0.024s0,0,0-0.013c0.024-0.036,0.036-0.061,0.061-0.085
					c0.013-0.024,0.024-0.037,0.037-0.061c0.036-0.049,0.073-0.098,0.098-0.146C578.602,761.404,578.516,761.441,578.431,761.49z"/>
				<path style="fill:#7D8CA3;" d="M573.004,748.55c-0.049,0.024-0.098,0.036-0.146,0.061l0,0c-0.146,0.073-0.28,0.146-0.415,0.22
					c-0.061,0.037-0.122,0.073-0.183,0.122c-0.329,0.22-0.609,0.464-0.817,0.744c-0.195,0.256-0.316,0.524-0.378,0.805
					c0,0.013,0,0.036-0.012,0.049c0,0.024-0.013,0.049-0.013,0.085c0,0.013,0,0.024,0,0.049c0,0.037-0.012,0.073-0.012,0.11v0.024
					h0.622c0.134-0.451,0.463-0.878,0.938-1.256c0.037-0.11,0.073-0.232,0.122-0.342c0.061-0.158,0.146-0.305,0.231-0.451
					c0.013-0.024,0.024-0.049,0.049-0.073c0.013-0.013,0.024-0.037,0.037-0.049c0.012-0.013,0.012-0.024,0.024-0.024
					c0-0.013,0.012-0.013,0.012-0.024c0-0.013,0.013-0.013,0.024-0.024c0.013-0.012,0.013-0.024,0.024-0.037
					c0.013-0.012,0.024-0.023,0.024-0.036C573.089,748.514,573.053,748.538,573.004,748.55z M573.138,753.282
					C573.126,753.27,573.126,753.27,573.138,753.282c-0.012-0.024-0.024-0.036-0.036-0.049h-0.013
					c-0.158-0.085-0.317-0.17-0.451-0.268c-0.183-0.122-0.342-0.257-0.476-0.391c-0.342-0.354-0.549-0.769-0.561-1.207h-0.5l0,0
					c0.012,0.036,0.024,0.073,0.036,0.109c0.013,0.024,0.013,0.049,0.024,0.073c0,0.013,0.013,0.024,0.013,0.036
					c0.024,0.073,0.061,0.135,0.097,0.208c0.013,0.024,0.024,0.049,0.037,0.073c0.012,0.024,0.024,0.049,0.036,0.073
					c0.013,0.012,0.024,0.036,0.037,0.049c0,0,0,0,0,0.012c0.012,0.013,0.024,0.036,0.036,0.049
					c0.013,0.013,0.024,0.036,0.037,0.049c0.012,0.012,0.012,0.024,0.024,0.036c0.012,0.013,0.012,0.024,0.024,0.037l0.012,0.012
					c0.013,0.013,0.013,0.013,0.024,0.024c0.013,0.024,0.037,0.037,0.049,0.062c0.013,0.024,0.037,0.049,0.062,0.061
					c0.012,0.013,0.024,0.037,0.049,0.049l0,0c0.048,0.049,0.097,0.098,0.146,0.146c0.024,0.024,0.049,0.037,0.073,0.061
					c0.024,0.024,0.037,0.037,0.062,0.062c0.049,0.036,0.085,0.073,0.134,0.109c0.013,0.013,0.024,0.024,0.037,0.037
					c0.036,0.024,0.061,0.049,0.097,0.073c0.013,0.012,0.037,0.024,0.049,0.036c0.037,0.024,0.073,0.062,0.11,0.086
					c0.012,0.012,0.024,0.012,0.024,0.024c0.049,0.036,0.098,0.072,0.158,0.097l0,0c0.073,0.049,0.158,0.098,0.231,0.146
					c0.049,0.024,0.098,0.049,0.146,0.086c0.049,0.024,0.11,0.049,0.159,0.073c0.036,0.024,0.085,0.036,0.121,0.061
					C573.211,753.379,573.175,753.331,573.138,753.282z M574.979,748.514c0.012-0.049,0.036-0.086,0.049-0.135
					c0.036-0.085,0.073-0.171,0.109-0.256c-0.098,0.036-0.195,0.061-0.28,0.109c-0.073,0.037-0.146,0.062-0.22,0.098
					c-0.012,0-0.012,0.013-0.024,0.013c-0.049,0.024-0.109,0.049-0.158,0.085c-0.037,0.024-0.086,0.049-0.122,0.073l-0.013,0.013
					c0,0-0.012,0-0.012,0.012c-0.013,0.012-0.037,0.024-0.049,0.037c-0.061,0.036-0.109,0.072-0.171,0.121
					c-0.269,0.208-0.5,0.451-0.683,0.72c-0.037,0.062-0.073,0.11-0.11,0.171c-0.207,0.366-0.329,0.769-0.341,1.207
					c0,0.013,0,0.024,0,0.024h0.414c0.159-0.805,0.72-1.524,1.513-2c0.012-0.024,0.012-0.061,0.024-0.085
					c0-0.024,0.012-0.049,0.024-0.073c0.049-0.037,0.085-0.062,0.134-0.098C575.04,748.55,575.016,748.526,574.979,748.514
					L574.979,748.514z M575.138,753.684c-0.012,0-0.012,0-0.024-0.012c-0.207-0.086-0.402-0.183-0.573-0.293
					c-0.207-0.134-0.39-0.28-0.549-0.463c-0.012-0.013-0.024-0.024-0.036-0.037c-0.024-0.024-0.049-0.061-0.073-0.085
					c-0.329-0.402-0.524-0.891-0.549-1.427c0-0.013,0-0.013,0-0.024h-0.342c0.146,0.805,0.659,1.549,1.402,2.061l0,0
					c0.086,0.062,0.171,0.122,0.269,0.171c0,0,0,0,0.013,0c0.17,0.109,0.354,0.195,0.549,0.28
					C575.199,753.819,575.175,753.746,575.138,753.684z M578.382,749.538c-0.329-0.878-0.891-1.512-1.537-1.609
					c-0.012,0-0.024,0-0.036-0.012l0,0c-0.073,0-0.146,0-0.207-0.013c-0.159,0.013-0.306,0.049-0.439,0.122
					c-0.269,0.134-0.512,0.378-0.707,0.695c-0.013,0.012-0.024,0.036-0.037,0.049c-0.036,0.061-0.073,0.134-0.109,0.207
					c-0.049,0.098-0.085,0.195-0.122,0.293c0,0.012,0,0.012,0,0.024c-0.146,0.39-0.231,0.854-0.256,1.354c0,0.049,0,0.098,0,0.158
					h0.195c0.036-0.402,0.134-0.78,0.256-1.122c0.305-0.792,0.805-1.365,1.39-1.451c0.013,0,0.024,0,0.037,0l0,0
					c0.061,0,0.122,0,0.183,0c0.135,0.013,0.269,0.049,0.402,0.11c0.244,0.122,0.464,0.341,0.635,0.634
					c0.012,0.013,0.024,0.024,0.024,0.049c0.036,0.061,0.073,0.122,0.098,0.183c0.036,0.086,0.073,0.171,0.109,0.257
					c0,0.012,0,0.012,0,0.012c0.134,0.354,0.22,0.769,0.231,1.231c0,0.037,0,0.073,0,0.11h0.171
					C578.626,750.355,578.528,749.917,578.382,749.538z M578.491,751.343c-0.134,1.341-0.816,2.451-1.646,2.585
					c-0.012,0-0.024,0-0.036,0l0,0c-0.062,0-0.122,0-0.183,0c-0.415-0.024-0.781-0.293-1.049-0.731
					c-0.122-0.195-0.22-0.415-0.293-0.659c-0.085-0.243-0.134-0.523-0.158-0.805c0-0.012,0-0.024,0-0.024l0,0
					c0-0.012,0-0.012,0-0.024c-0.013-0.109-0.013-0.219-0.013-0.329h-0.171c0.135,1.5,0.902,2.744,1.829,2.891
					c0.013,0,0.024,0,0.037,0l0,0c0.073,0,0.134,0,0.207,0c0.451-0.024,0.854-0.329,1.159-0.817c0.134-0.22,0.243-0.463,0.329-0.731
					c0.085-0.269,0.146-0.573,0.171-0.902c0-0.013,0-0.024,0-0.024l0,0c0-0.013,0-0.013,0-0.024
					c0.012-0.122,0.024-0.244,0.024-0.366v-0.024h-0.208V751.343z M578.357,748.282c0.036,0.062,0.061,0.135,0.085,0.195
					c0.037,0.013,0.062,0.024,0.086,0.037c0.061,0.023,0.134,0.061,0.195,0.097c0.048,0.024,0.109,0.062,0.158,0.086
					c0.036,0.024,0.073,0.049,0.109,0.073c0,0,0.013,0,0.013,0.012l0.012,0.013c0.013,0.012,0.037,0.024,0.049,0.036
					c0.049,0.037,0.098,0.073,0.146,0.11c0.244,0.183,0.451,0.402,0.609,0.646c0.037,0.049,0.073,0.098,0.098,0.159
					c0.184,0.329,0.293,0.695,0.306,1.085h0.341C580.382,749.733,579.528,748.782,578.357,748.282z M580.211,751.343
					c-0.146,0.72-0.598,1.378-1.256,1.841c-0.073,0.062-0.159,0.11-0.244,0.159c-0.049,0.171-0.098,0.329-0.158,0.476
					c-0.024,0.073-0.062,0.134-0.098,0.207c0.073-0.024,0.146-0.049,0.207-0.073c0.231-0.085,0.439-0.195,0.634-0.329
					c0.232-0.146,0.439-0.317,0.61-0.513c0.012-0.012,0.024-0.024,0.036-0.036c0.024-0.037,0.062-0.061,0.086-0.098
					c0.365-0.451,0.585-0.987,0.609-1.573c0-0.012,0-0.024,0-0.024c0-0.012,0-0.012,0-0.024h-0.427V751.343z M580.345,748.721
					c0.049,0.073,0.098,0.134,0.146,0.207c0.073,0.037,0.146,0.086,0.22,0.122c0.061,0.036,0.109,0.073,0.171,0.109
					c0.305,0.195,0.549,0.427,0.731,0.671c0.171,0.232,0.293,0.464,0.342,0.732c0.012,0.085,0.024,0.158,0.036,0.256h0.5
					C582.271,749.99,581.479,749.257,580.345,748.721z M581.931,751.343c-0.013,0.024-0.013,0.049-0.024,0.073
					c-0.146,0.427-0.464,0.829-0.915,1.183c-0.073,0.231-0.171,0.464-0.292,0.671c-0.049,0.085-0.098,0.171-0.146,0.244
					c-0.024,0.036-0.049,0.072-0.073,0.109c-0.013,0.012-0.013,0.024-0.024,0.036c0.061-0.024,0.122-0.049,0.171-0.073
					c0.049-0.023,0.109-0.049,0.158-0.072c0.036-0.013,0.073-0.037,0.109-0.049l0,0c0.086-0.049,0.171-0.086,0.257-0.135l0,0
					c0.085-0.049,0.17-0.098,0.243-0.158c0.195-0.135,0.378-0.28,0.524-0.439c0.391-0.402,0.61-0.854,0.635-1.341
					c0-0.013,0-0.013,0-0.024h-0.622V751.343z"/>
			</g>
			<path style="fill:#3B4063;" d="M575.077,748.563c-0.049,0.036-0.098,0.061-0.135,0.097l0,0c0.013-0.036,0.024-0.061,0.037-0.097
				c0-0.013,0.012-0.025,0.012-0.037C575.016,748.526,575.04,748.55,575.077,748.563z"/>
			<path style="fill:#3B4063;" d="M576.991,751.319h1.488c0,0.012,0,0.012,0,0.024h-1.451
				C577.016,751.343,577.004,751.331,576.991,751.319z"/>
			<path style="fill:#3B4063;" d="M578.491,750.806c0,0.013,0,0.013,0,0.024h-2.134c-0.013-0.012-0.024-0.012-0.037-0.024H578.491z"
				/>
			<path style="fill:#3B4063;" d="M579.345,751.343h-0.598c0-0.013,0-0.013,0-0.024h0.562
				C579.333,751.331,579.345,751.343,579.345,751.343z"/>
			<path style="fill:#3B4063;" d="M586.15,764.575h-4.769c0,0.012,0,0.024,0,0.036h4.78
				C586.15,764.599,586.15,764.586,586.15,764.575z M581.357,765.294v0.036h4.769l0,0c0-0.012,0-0.024,0-0.024h-4.769V765.294z
				 M574.979,748.514c0,0.012-0.013,0.023-0.013,0.036c-0.012,0.036-0.024,0.061-0.036,0.098l0,0
				c0.049-0.037,0.085-0.062,0.134-0.098C575.04,748.55,575.016,748.526,574.979,748.514z M579.32,751.319h-0.561
				c0,0.012,0,0.012,0,0.024h0.598C579.345,751.343,579.333,751.331,579.32,751.319z M578.491,750.806L578.491,750.806h-3.39
				c0,0.013,0,0.013,0,0.024h3.39C578.491,750.831,578.491,750.819,578.491,750.806z M575.089,751.319v0.024h3.391l0,0
				c0-0.013,0-0.013,0-0.024H575.089z M567.796,743.124c-0.256-0.293-0.609-0.524-1.024-0.658c0.488,0.194,0.891,0.5,1.184,0.878
				C567.918,743.257,567.857,743.184,567.796,743.124z M567.199,744.221c-0.073-0.695-0.257-1.317-0.513-1.78
				c-0.012,0-0.012,0-0.024-0.013c0.049,0.086,0.085,0.171,0.134,0.269c0.098,0.22,0.171,0.463,0.22,0.731
				c0.024,0.122,0.049,0.256,0.062,0.402c0.012,0.098,0.024,0.195,0.024,0.293c0,0.012,0,0.036,0,0.049v0.049H567.199z
				 M565.479,744.672l-0.562,0.024l-0.536,0.024l0,0l1.476-0.062l0.585-0.024l0.488-0.024c0-0.012,0-0.012,0-0.024L565.479,744.672z
				 M566.455,744.246h-0.11l-1.963,0.098c0,0,0,0.012,0,0.024l0.512-0.024l0.098-0.013l1.232-0.061l0.707-0.037l0,0L566.455,744.246
				z M566.504,742.879c-0.062-0.085-0.122-0.171-0.184-0.231c0.049,0.061,0.098,0.122,0.146,0.183
				c0.062,0.086,0.122,0.184,0.184,0.293C566.602,743.026,566.553,742.953,566.504,742.879z M564.735,745.977
				c-0.049-0.073-0.085-0.146-0.122-0.22c0.024,0.049,0.049,0.098,0.062,0.135c0.012,0.036,0.036,0.073,0.061,0.109
				c0.073,0.134,0.171,0.244,0.256,0.329C564.906,746.233,564.82,746.124,564.735,745.977z M564.491,746.208
				c0-0.012-0.012-0.024-0.012-0.036c-0.024-0.049-0.037-0.109-0.062-0.171l0,0c-0.012-0.012-0.012-0.036-0.012-0.049
				c0-0.012-0.013-0.024-0.013-0.036c-0.049-0.171-0.098-0.354-0.122-0.537c-0.036-0.195-0.061-0.39-0.072-0.585v-0.049h-0.086
				c0.013,0.134,0.037,0.256,0.049,0.378c0,0.012,0,0.024,0.013,0.036c0.024,0.159,0.061,0.317,0.097,0.464
				c0.013,0.036,0.024,0.073,0.037,0.109c0.085,0.293,0.195,0.562,0.329,0.793c0.013,0,0.013,0,0.024,0.012
				C564.589,746.428,564.54,746.319,564.491,746.208z M563.345,745.624c0.049,0.073,0.11,0.158,0.171,0.22
				c0.122,0.134,0.256,0.243,0.402,0.354c0,0,0.013,0,0.013,0.012l0.012,0.013c0,0,0,0,0.013,0.012c0,0,0.012,0,0.012,0.013
				c0.049,0.036,0.11,0.073,0.159,0.098l0,0c0.036,0.024,0.085,0.036,0.121,0.061c0.073,0.037,0.159,0.073,0.244,0.098
				C564.028,746.294,563.626,745.99,563.345,745.624z"/>
			<path style="fill:#3B4063;" d="M592.955,764.953c-0.013-0.122-0.024-0.244-0.049-0.366c-0.195-1.097-0.829-2.109-1.829-2.951l0,0
				c-0.964-0.816-2.257-1.476-3.781-1.902c-0.378-0.109-0.78-0.207-1.194-0.28l0,0l0,0c-0.024-0.036-0.037-0.073-0.062-0.109
				c-0.256-0.439-0.476-0.902-0.756-1.329l-0.842-1.269c-0.598-0.842-1.243-1.635-1.927-2.402c-0.049-0.049-0.085-0.098-0.134-0.146
				c-0.11-0.11-0.207-0.231-0.317-0.342c0.171-0.134,0.329-0.28,0.476-0.427c0.549-0.573,0.854-1.269,0.878-2
				c0-0.024,0-0.049,0-0.073c0-0.098,0-0.269,0-0.269c-0.012-0.085-0.012-0.183-0.036-0.268c-0.354-2.086-2.976-3.708-6.439-3.891
				c-0.049,0-0.109-0.012-0.158-0.012l0,0c-0.049,0-0.085-0.013-0.134-0.013c-0.013,0-0.037,0-0.049,0h-0.013
				c-0.036,0-0.061,0-0.085,0h-0.146c-0.671,0-1.317,0.062-1.927,0.171c-0.269,0.049-0.524,0.109-0.769,0.183
				c-0.195,0.049-0.378,0.11-0.561,0.184c-0.062,0.024-0.122,0.049-0.195,0.073h-0.013l0,0c-0.938-0.415-1.902-0.793-2.865-1.11
				c-0.159-0.049-0.317-0.109-0.464-0.158l0,0c0.159-0.135,0.293-0.293,0.402-0.439c0.293-0.39,0.439-0.829,0.439-1.292
				c0-0.013,0-0.037,0-0.049c0-0.062-0.013-0.195-0.013-0.195c-0.012-0.062-0.024-0.122-0.036-0.195
				c-0.098-0.451-0.354-0.866-0.72-1.231c-0.134-0.135-0.293-0.257-0.451-0.378c-0.22-0.146-0.451-0.293-0.72-0.402
				c-0.012-0.013-0.036-0.013-0.049-0.025c-0.78-0.354-1.743-0.548-2.805-0.561c-0.036,0-0.073,0-0.122,0l0,0
				c-0.036,0-0.061,0-0.098,0c-0.012,0-0.024,0-0.036,0h-0.013c-0.024,0-0.036,0-0.061,0c-0.013,0-0.024,0-0.037,0
				c-0.023,0-0.048,0-0.061,0c-1.109,0.049-2.146,0.329-2.927,0.793c-0.28,0.158-0.524,0.354-0.72,0.549
				c-0.061,0.061-0.122,0.122-0.171,0.195c-0.012,0.012-0.012,0.012-0.012,0.023c-0.013,0.025-0.037,0.037-0.049,0.062
				c-0.231,0.305-0.378,0.634-0.427,0.987c-0.024,0.11-0.024,0.208-0.024,0.317v0.024c0,0.013,0,0.024,0,0.049l0,0
				c-0.134-0.012-0.269-0.024-0.391-0.036c-0.658-0.049-1.316-0.073-1.976-0.073c0.659,0.049,1.329,0.122,1.976,0.207
				c0.135,0.024,0.269,0.036,0.402,0.061l0,0l0,0v0.037h-0.012c0,0.012,0,0.036,0.012,0.049c0.013,0.049,0.013,0.098,0.024,0.134
				l0,0c0.073,0.305,0.208,0.598,0.415,0.866c0,0.012,0.012,0.012,0.012,0.024c0.013,0.024,0.037,0.049,0.049,0.073
				c0.024,0.036,0.049,0.061,0.086,0.098c-0.024-0.013-0.049-0.013-0.073-0.024c-0.305-0.086-0.61-0.171-0.915-0.257
				c-1.085-0.292-2.183-0.524-3.292-0.731c-0.281-0.049-0.549-0.098-0.83-0.134c-1.658-0.256-3.341-0.415-5.012-0.427
				c1.598,0.109,3.171,0.365,4.731,0.707c0.342,0.073,0.683,0.158,1.024,0.231c1.098,0.281,2.195,0.598,3.256,0.951
				c0.379,0.135,0.757,0.269,1.135,0.402c0.341,0.122,0.671,0.257,1,0.402c0.036,0.013,0.085,0.037,0.122,0.049
				c0.354,0.146,0.707,0.306,1.061,0.464c0.793,0.354,1.562,0.744,2.317,1.171c1.512,0.842,2.938,1.793,4.256,2.878l0,0l0,0
				c0.269,0.927,0.988,1.756,2.036,2.378c0.269,0.158,0.573,0.317,0.891,0.451l0,0l0,0c0.037,0.049,0.085,0.098,0.122,0.135
				c0.427,0.5,0.842,1.012,1.22,1.548c0.39,0.537,0.768,1.098,1.109,1.659l0.695,1.22c0.22,0.414,0.402,0.841,0.609,1.268
				c0.049,0.098,0.086,0.184,0.135,0.28c0.012,0.025,0.024,0.049,0.024,0.062l0,0l0,0c-0.062,0.036-0.122,0.073-0.171,0.109
				c-0.317,0.208-0.61,0.427-0.866,0.659c-0.927,0.854-1.451,1.902-1.5,3.049c0,0.036,0,0.073,0,0.098c0,0.121,0,0.243,0.013,0.365
				h-0.013c0.013,0.122,0.024,0.244,0.049,0.378c0.317,1.817,1.878,3.391,4.183,4.366c0.159,0.061,0.317,0.134,0.488,0.195l0,0l0,0
				c0.012,0.219,0.036,0.438,0.049,0.658c0.073,1.158,0.085,2.317,0.036,3.476h3.184c-0.037-0.987-0.098-1.976-0.208-2.951
				c-0.012-0.158-0.036-0.305-0.049-0.464l0,0l0,0c0.086,0.013,0.171,0.025,0.257,0.037c0.207,0.024,0.427,0.049,0.634,0.061
				c0.109,0.013,0.22,0.013,0.329,0.024c0.073,0,0.146,0.013,0.22,0.013l0,0c0.024,0,0.049,0,0.061,0.012
				c0.037,0.013,0.086,0.013,0.122,0.013c0.024,0,0.049,0,0.062,0h0.012c0.037,0,0.086,0,0.122,0c0.024,0,0.049,0,0.073,0
				c0.049,0,0.086,0,0.122,0c0.731,0,1.463-0.049,2.146-0.159l0,0c0.036,0.524,0.049,1.049,0.061,1.586
				c0.013,0.622,0,1.244-0.012,1.854h3.183c-0.049-1.402-0.171-2.817-0.366-4.22l0,0l0,0c0.171-0.073,0.33-0.146,0.488-0.22
				c0.073-0.036,0.134-0.072,0.207-0.109c0.049-0.024,0.098-0.049,0.146-0.073c1.671-0.938,2.634-2.28,2.756-3.817
				c0-0.048,0.013-0.085,0.013-0.134v-0.012c0-0.037,0-0.073,0-0.098C592.955,765.197,592.955,764.953,592.955,764.953z
				 M590.175,762.586c0.756,0.586,1.28,1.269,1.476,1.988h-1.817c-0.049-0.451-0.158-0.891-0.305-1.317l0,0
				c-0.184-0.512-0.439-0.987-0.757-1.427c-0.036-0.049-0.072-0.098-0.109-0.146C589.247,761.953,589.747,762.257,590.175,762.586z
				 M588.845,763.99C588.845,763.99,588.857,763.99,588.845,763.99L588.845,763.99c0.073,0.194,0.122,0.39,0.159,0.597h-0.793l0,0
				h-1.451c-0.013-0.146-0.024-0.305-0.036-0.451c0-0.024,0-0.049-0.013-0.072c-0.012-0.11-0.024-0.208-0.036-0.306
				c0-0.024-0.013-0.061-0.013-0.085c-0.012-0.049-0.012-0.109-0.024-0.158c0-0.013,0-0.024-0.012-0.037
				c-0.013-0.049-0.013-0.085-0.024-0.134c0-0.013,0-0.037-0.013-0.049c-0.012-0.049-0.012-0.098-0.024-0.146
				c-0.024-0.098-0.036-0.195-0.061-0.293c-0.073-0.305-0.146-0.598-0.244-0.878c-0.013-0.036-0.024-0.085-0.036-0.122
				c0-0.012-0.013-0.024-0.013-0.049c-0.061-0.171-0.122-0.329-0.195-0.476c-0.012-0.012-0.012-0.036-0.024-0.049l0,0
				c-0.024-0.061-0.061-0.122-0.085-0.183c0.122,0.049,0.231,0.098,0.341,0.158c0.013,0.013,0.037,0.013,0.049,0.024
				c0.098,0.049,0.195,0.098,0.293,0.159c0.013,0,0.013,0.012,0.024,0.012c0.013,0,0.013,0.013,0.024,0.013
				c0.098,0.061,0.195,0.121,0.293,0.183l0.012,0.012c0,0,0.013,0,0.013,0.013c0.098,0.073,0.195,0.146,0.292,0.22l0,0l0,0l0,0
				C588.004,762.441,588.564,763.172,588.845,763.99z M579.955,767.782c-0.073-0.073-0.146-0.134-0.22-0.207
				c-0.049-0.049-0.098-0.098-0.146-0.158l0,0l0,0c-0.036-0.037-0.061-0.073-0.098-0.11c-0.012-0.012-0.024-0.024-0.036-0.049
				c-0.037-0.036-0.073-0.085-0.11-0.122c-0.073-0.085-0.134-0.183-0.194-0.28c0,0,0-0.012-0.013-0.012
				c-0.024-0.037-0.049-0.073-0.073-0.11c-0.098-0.158-0.195-0.329-0.269-0.5l0,0l0,0c-0.134-0.292-0.231-0.598-0.292-0.902h2.243
				v0.013c0.013,0.134,0.024,0.268,0.037,0.402c0,0.049,0.012,0.098,0.012,0.146c0,0.024,0,0.036,0,0.061
				c0,0.049,0.013,0.098,0.013,0.158c0.012,0.062,0.012,0.11,0.024,0.171c0,0.037,0.012,0.073,0.012,0.098
				c0,0.037,0.013,0.073,0.013,0.11c0.012,0.048,0.012,0.097,0.024,0.146c0.012,0.037,0.012,0.086,0.024,0.122v0.013
				c0.012,0.036,0.012,0.073,0.024,0.109c0.012,0.049,0.012,0.098,0.024,0.135c0.036,0.146,0.073,0.292,0.109,0.438
				c0.013,0.073,0.037,0.134,0.062,0.207s0.036,0.135,0.061,0.208c0.013,0.049,0.037,0.109,0.049,0.158
				c0.012,0.037,0.024,0.073,0.036,0.098c0.013,0.049,0.037,0.098,0.049,0.134c0.013,0.037,0.024,0.062,0.037,0.098
				c0.012,0.024,0.012,0.037,0.024,0.062c0.012,0.036,0.024,0.073,0.049,0.098c0.012,0.036,0.036,0.085,0.049,0.121
				c0.024,0.062,0.061,0.122,0.085,0.171v0.013c-0.402-0.171-0.78-0.378-1.122-0.622
				C580.296,768.063,580.126,767.928,579.955,767.782z M578.918,762.879L578.918,762.879c0.049-0.085,0.098-0.158,0.146-0.231
				c0.013-0.013,0.013-0.024,0.024-0.037c0.049-0.073,0.098-0.146,0.158-0.219c0.013-0.024,0.037-0.037,0.049-0.062
				c0.013-0.024,0.037-0.036,0.049-0.061c0.024-0.024,0.049-0.049,0.062-0.073c0.049-0.049,0.085-0.098,0.134-0.146
				c0.062-0.061,0.135-0.134,0.195-0.183c0.024-0.024,0.049-0.037,0.061-0.062l0,0c0.024-0.024,0.049-0.036,0.073-0.061
				c0.049-0.037,0.086-0.073,0.135-0.11l0,0l0,0c0.243-0.183,0.5-0.354,0.792-0.487c0.22-0.11,0.439-0.207,0.671-0.28
				c-0.122,0.256-0.231,0.549-0.329,0.854c-0.012,0.049-0.024,0.098-0.049,0.146c-0.158,0.561-0.269,1.183-0.317,1.841
				c0,0.037,0,0.073-0.012,0.098c-0.013,0.22-0.024,0.439-0.024,0.659c0,0.036,0,0.072,0,0.098h-2.293c0-0.013,0-0.025,0-0.037
				c0-0.049,0-0.098,0.013-0.134c0-0.037,0-0.062,0.012-0.098l0,0c0.024-0.28,0.086-0.549,0.171-0.817
				C578.711,763.282,578.809,763.075,578.918,762.879z M581.15,764.575c0.012-0.671,0.109-1.293,0.28-1.854
				c0.109-0.354,0.256-0.684,0.414-0.964c0.415-0.72,0.988-1.158,1.635-1.207c0.098,0,0.195,0,0.292,0.013
				c0.024,0,0.037,0,0.049,0.012c0.146,0.024,0.293,0.061,0.427,0.122c0.013,0,0.024,0.012,0.037,0.012
				c1.024,0.464,1.829,1.902,2.049,3.622c0.012,0.073,0.024,0.159,0.024,0.232h-0.769l0,0h-4.438V764.575z M582.833,757.892
				L582.833,757.892l0.658,1.158c0.024,0.036,0.049,0.085,0.062,0.122l0,0c-0.013,0-0.024,0-0.037,0h-0.012
				c-0.037,0-0.086,0-0.122,0c-0.024,0-0.049,0-0.073,0c-0.013,0-0.037,0-0.049,0c-0.024,0-0.049,0-0.073,0
				c-1.098,0-2.158,0.122-3.134,0.342c-0.317,0.072-0.622,0.158-0.915,0.243l0,0l0,0c-0.073-0.146-0.158-0.28-0.231-0.427
				c-0.195-0.341-0.378-0.695-0.586-1.049l0,0L582.833,757.892z M574.406,753.417L574.406,753.417L574.406,753.417
				c-0.744-0.524-1.256-1.257-1.402-2.073h1.622c0.024,0.512,0.098,1,0.219,1.438c0.086,0.317,0.184,0.622,0.306,0.891
				c0.024,0.061,0.061,0.134,0.085,0.195c-0.195-0.086-0.378-0.171-0.549-0.281c0,0,0,0-0.012,0
				C574.589,753.538,574.491,753.477,574.406,753.417z M572.967,753.294c-0.049-0.024-0.098-0.049-0.146-0.086
				c-0.085-0.049-0.158-0.098-0.231-0.146l0,0c-0.049-0.037-0.109-0.073-0.158-0.098c-0.013-0.013-0.024-0.013-0.024-0.024
				c-0.037-0.024-0.073-0.049-0.11-0.086c-0.012-0.012-0.036-0.024-0.049-0.036c-0.036-0.024-0.061-0.049-0.097-0.073
				c-0.013-0.013-0.024-0.024-0.037-0.037c-0.049-0.036-0.085-0.073-0.134-0.109c-0.024-0.013-0.037-0.036-0.062-0.049
				c-0.024-0.024-0.049-0.036-0.073-0.061c-0.049-0.049-0.098-0.098-0.146-0.146l0,0c-0.013-0.013-0.037-0.037-0.049-0.049
				c-0.024-0.024-0.037-0.049-0.062-0.062c-0.024-0.012-0.036-0.049-0.049-0.061c-0.012-0.013-0.012-0.013-0.012-0.024l-0.013-0.013
				c-0.012-0.012-0.012-0.024-0.024-0.036c-0.012-0.013-0.012-0.024-0.024-0.024c-0.012-0.012-0.024-0.037-0.036-0.049
				c-0.013-0.012-0.024-0.036-0.037-0.049c0,0,0,0,0-0.012c-0.012-0.013-0.024-0.037-0.036-0.049
				c-0.013-0.024-0.024-0.049-0.037-0.073c-0.012-0.024-0.024-0.049-0.036-0.073c-0.037-0.062-0.073-0.135-0.098-0.207
				c-0.012-0.013-0.012-0.025-0.012-0.037c-0.013-0.024-0.024-0.049-0.024-0.073c-0.013-0.036-0.024-0.073-0.037-0.109l0,0h1.305
				c0.013,0.146,0.037,0.292,0.073,0.438l0,0l0,0c0.049,0.232,0.122,0.464,0.208,0.671c0.012,0.013,0.012,0.037,0.024,0.049
				c0.012,0.036,0.023,0.062,0.036,0.098c0.085,0.195,0.195,0.391,0.317,0.573c0.012,0.012,0.012,0.024,0.024,0.036
				c0,0.013,0.012,0.013,0.012,0.024c0.013,0.013,0.013,0.024,0.024,0.037c0,0,0,0,0,0.012c0.037,0.049,0.073,0.11,0.109,0.159
				c-0.048-0.024-0.085-0.037-0.121-0.062C573.064,753.343,573.016,753.319,572.967,753.294z M572.26,748.953
				c0.061-0.036,0.122-0.085,0.183-0.122c0.135-0.073,0.269-0.146,0.415-0.22l0,0l0,0c0.049-0.024,0.098-0.048,0.146-0.061
				c0.036-0.024,0.085-0.036,0.122-0.061c-0.013,0.012-0.013,0.024-0.024,0.036c-0.013,0.012-0.013,0.024-0.024,0.037
				c0,0.012-0.013,0.012-0.013,0.023c0,0.013-0.012,0.013-0.012,0.024c-0.013,0.013-0.013,0.024-0.013,0.024
				c-0.012,0.013-0.024,0.037-0.036,0.049l0,0l0,0c-0.013,0.024-0.037,0.049-0.049,0.073c-0.086,0.146-0.171,0.293-0.231,0.451
				c-0.049,0.11-0.086,0.22-0.122,0.329c-0.098,0.293-0.159,0.598-0.195,0.903c-0.013,0.122-0.024,0.231-0.024,0.354h-1.354v-0.024
				c0-0.037,0-0.073,0.012-0.11c0-0.012,0-0.024,0-0.049s0.013-0.048,0.013-0.073c0-0.012,0-0.036,0.012-0.048
				c0.062-0.293,0.183-0.562,0.378-0.806C571.65,749.417,571.931,749.172,572.26,748.953z M574.918,751.343h3.769v0.024
				c0,0.122-0.012,0.256-0.024,0.365c0,0.013,0,0.013,0,0.024l0,0c0,0.013,0,0.024,0,0.024c-0.024,0.329-0.085,0.622-0.171,0.902
				c-0.085,0.269-0.195,0.524-0.329,0.732c-0.293,0.487-0.707,0.792-1.158,0.816c-0.073,0-0.135,0-0.208,0l0,0
				c-0.012,0-0.024,0-0.036-0.012C575.82,754.086,575.064,752.843,574.918,751.343z M578.54,753.819
				c0.062-0.146,0.122-0.305,0.159-0.476c0.036-0.098,0.061-0.208,0.085-0.317c0.073-0.305,0.122-0.622,0.146-0.951
				c0-0.024,0-0.049,0.012-0.061v-0.013c0.013-0.183,0.024-0.378,0.024-0.585c0-0.024,0-0.049,0-0.073h1.659
				c0,0.012,0,0.012,0,0.024c0,0.012,0,0.024,0,0.024c-0.024,0.598-0.244,1.134-0.61,1.573c-0.024,0.036-0.061,0.072-0.085,0.098
				c-0.013,0.012-0.024,0.023-0.037,0.036c-0.183,0.195-0.378,0.366-0.609,0.512c-0.195,0.135-0.402,0.244-0.634,0.33
				c-0.073,0.024-0.135,0.049-0.208,0.073C578.479,753.965,578.504,753.892,578.54,753.819z M582.553,751.379
				c-0.024,0.488-0.244,0.951-0.635,1.342c-0.146,0.158-0.329,0.305-0.524,0.438c-0.073,0.049-0.158,0.11-0.243,0.159l0,0
				c-0.086,0.049-0.171,0.098-0.257,0.134l0,0c-0.036,0.024-0.073,0.037-0.109,0.049c-0.049,0.024-0.109,0.049-0.158,0.073
				c-0.062,0.024-0.11,0.049-0.171,0.073c0.012-0.013,0.012-0.024,0.024-0.037c0.024-0.036,0.049-0.073,0.073-0.109
				c0.049-0.073,0.098-0.158,0.146-0.244c0.121-0.207,0.207-0.438,0.292-0.671c0.073-0.219,0.122-0.451,0.159-0.683
				c0.036-0.183,0.049-0.378,0.049-0.573h1.354C582.564,751.355,582.553,751.368,582.553,751.379z M582.504,750.806h-1.305
				c-0.073-0.683-0.317-1.329-0.695-1.878c-0.049-0.073-0.098-0.134-0.146-0.207C581.479,749.257,582.271,749.99,582.504,750.806z
				 M580.589,750.806h-1.622c-0.024-0.316-0.049-0.622-0.098-0.914c-0.098-0.524-0.231-1.013-0.414-1.427
				c-0.024-0.062-0.062-0.135-0.086-0.195C579.528,748.782,580.382,749.733,580.589,750.806z M575.175,749.282
				c0.036-0.098,0.085-0.195,0.121-0.292c0.037-0.073,0.073-0.146,0.11-0.208c0.012-0.012,0.024-0.036,0.036-0.049
				c0.195-0.316,0.439-0.561,0.708-0.695c0.146-0.072,0.292-0.109,0.438-0.121c0.073,0,0.135,0,0.207,0.012l0,0
				c0.013,0,0.024,0,0.037,0c0.646,0.098,1.207,0.731,1.549,1.609c0.146,0.391,0.244,0.817,0.293,1.281h-3.757
				c0-0.049,0-0.098,0-0.159c0.024-0.5,0.11-0.963,0.257-1.354C575.175,749.294,575.175,749.282,575.175,749.282z M574.869,748.233
				c0.098-0.036,0.184-0.073,0.281-0.109c-0.037,0.085-0.073,0.171-0.11,0.256c-0.012,0.049-0.036,0.086-0.049,0.135
				c0,0.012-0.012,0.023-0.012,0.036c-0.013,0.036-0.024,0.061-0.037,0.098c-0.012,0.024-0.012,0.049-0.024,0.073
				c-0.012,0.024-0.012,0.061-0.024,0.085c-0.012,0.049-0.036,0.098-0.049,0.159c-0.012,0.036-0.024,0.085-0.024,0.121
				c-0.097,0.415-0.158,0.879-0.183,1.366l0,0c0,0.098-0.012,0.183-0.012,0.28v0.073h-1.659c0-0.012,0-0.012,0-0.024
				c0.013-0.438,0.135-0.841,0.329-1.207c0.037-0.061,0.073-0.122,0.11-0.171c0.183-0.269,0.414-0.512,0.683-0.72
				c0.049-0.049,0.11-0.085,0.171-0.121c0.012-0.013,0.036-0.025,0.049-0.037c0,0,0.012,0,0.012-0.012l0.013-0.013
				c0.036-0.024,0.085-0.049,0.122-0.073c0.049-0.024,0.098-0.061,0.158-0.085c0.013,0,0.013-0.013,0.024-0.013
				C574.711,748.294,574.784,748.27,574.869,748.233z M561.955,744.843L561.955,744.843L561.955,744.843
				c0.012,0,0.024,0,0.036,0.012c0,0,0,0,0-0.012l0,0l0,0l0.22-0.013h0.036l0.122-0.012h0.049h0.073h0.024l0,0l0,0c0,0,0,0,0,0.012
				l0,0c0.013,0.11,0.037,0.207,0.073,0.305l0,0c0.086,0.317,0.231,0.61,0.415,0.891c0.061,0.085,0.122,0.171,0.195,0.256
				c0,0,0,0-0.013,0l0,0c-0.427-0.183-0.793-0.402-1.073-0.658c-0.085-0.073-0.158-0.158-0.231-0.231
				c-0.013-0.013-0.013-0.013-0.013-0.024c-0.012-0.024-0.036-0.049-0.049-0.073c0-0.013-0.012-0.013-0.012-0.024
				c-0.062-0.086-0.122-0.184-0.158-0.269l0,0c-0.013-0.036-0.037-0.061-0.049-0.109c-0.013-0.013-0.013-0.024-0.013-0.037
				L561.955,744.843z M564.15,745.124c0,0.012,0,0.024,0.012,0.036c0.024,0.159,0.062,0.317,0.098,0.464
				c0.012,0.036,0.024,0.073,0.036,0.109c0.086,0.293,0.195,0.562,0.317,0.793c0,0,0,0.012,0.013,0.012
				c-0.037-0.012-0.086-0.036-0.122-0.048l0,0c-0.476-0.195-0.866-0.5-1.146-0.866c-0.086-0.109-0.158-0.22-0.22-0.329
				c-0.036-0.073-0.073-0.146-0.098-0.22c-0.024-0.049-0.036-0.109-0.061-0.158l0,0c-0.013-0.037-0.024-0.073-0.037-0.11
				l1.171-0.049l0,0C564.113,744.879,564.138,745.001,564.15,745.124z M565.028,746.368c0-0.013-0.013-0.013-0.013-0.024
				c-0.098-0.11-0.183-0.22-0.269-0.366c-0.036-0.073-0.085-0.146-0.121-0.22c0,0,0,0,0-0.012c0-0.013-0.013-0.013-0.013-0.024
				c-0.073-0.158-0.134-0.329-0.195-0.513c0-0.012-0.012-0.024-0.012-0.049c-0.037-0.146-0.073-0.292-0.086-0.438h0.073l1.476-0.062
				l0.586-0.024l0.476-0.024h0.085v0.024c0.013,0.195,0,0.379-0.024,0.549c-0.024,0.195-0.061,0.379-0.122,0.549
				c-0.012,0.049-0.024,0.086-0.049,0.122c0,0.013-0.012,0.013-0.012,0.024c-0.013,0.037-0.037,0.086-0.049,0.122
				c-0.073,0.146-0.158,0.293-0.256,0.391c-0.146,0.171-0.317,0.28-0.5,0.329c-0.013,0-0.013,0-0.024,0.012l0,0l0,0
				c-0.037,0.013-0.062,0.013-0.086,0.013c-0.049,0-0.098,0-0.146,0c-0.012,0-0.024,0-0.036,0
				C565.467,746.721,565.235,746.586,565.028,746.368z M567.064,746.172c0-0.013,0.013-0.024,0.013-0.037
				c0.012-0.061,0.036-0.121,0.049-0.183c0-0.012,0-0.024,0.012-0.024c0-0.012,0-0.024,0.013-0.024c0-0.012,0-0.024,0.012-0.036
				c0.024-0.135,0.049-0.269,0.062-0.402c0.012-0.062,0.012-0.122,0.012-0.184c0.012-0.207,0.024-0.414,0.012-0.634v-0.049h0.037
				l0.793-0.036l0.183-0.013l0.183-0.013c0,0.013,0,0.013,0,0.025c0,0.17-0.012,0.329-0.061,0.487
				c-0.062,0.231-0.158,0.451-0.293,0.646c-0.109,0.146-0.231,0.293-0.39,0.414l0,0c-0.013,0.013-0.013,0.013-0.024,0.024
				c0,0,0,0-0.013,0.013l0,0l0,0l0,0c0,0-0.012,0-0.012,0.012l0,0c-0.049,0.037-0.11,0.086-0.159,0.122l0,0
				c-0.036,0.024-0.073,0.049-0.122,0.073c-0.122,0.073-0.256,0.146-0.402,0.195C566.979,746.428,567.028,746.306,567.064,746.172z
				 M569.796,744.501c0,0.366-0.146,0.707-0.427,1.013c-0.158,0.183-0.365,0.341-0.598,0.487c-0.024,0.013-0.048,0.036-0.072,0.049
				c-0.037,0.024-0.062,0.036-0.098,0.061c-0.073,0.037-0.159,0.086-0.232,0.122l0,0c0.024-0.024,0.037-0.061,0.049-0.085
				c0-0.013,0.013-0.013,0.013-0.024c0.012-0.013,0.012-0.024,0.024-0.037l0,0c0.024-0.036,0.049-0.085,0.061-0.121
				c0-0.013,0.013-0.013,0.013-0.013c0.049-0.098,0.085-0.195,0.122-0.305c0.049-0.122,0.073-0.256,0.109-0.391
				c0.049-0.231,0.073-0.463,0.061-0.707l0.684-0.036L569.796,744.501C569.796,744.49,569.796,744.501,569.796,744.501z
				 M569.211,743.331c0.013,0,0.013,0.013,0.024,0.024c0.244,0.22,0.415,0.476,0.5,0.744l-0.939,0.036v-0.012
				c-0.012-0.098-0.036-0.195-0.061-0.293c-0.122-0.438-0.329-0.829-0.609-1.171C568.553,742.855,568.931,743.075,569.211,743.331z
				 M566.771,742.465c0.488,0.194,0.891,0.5,1.184,0.878c0.195,0.243,0.329,0.524,0.402,0.829l-0.244,0.012l-0.231,0.013
				l-0.622,0.024h-0.061c-0.073-0.695-0.257-1.317-0.513-1.78c0,0,0-0.013-0.012-0.013
				C566.711,742.428,566.747,742.441,566.771,742.465z M565.406,742.208h0.146h0.024c0.268,0.024,0.512,0.184,0.731,0.415
				l0.012,0.012c0.049,0.062,0.098,0.122,0.146,0.184c0.062,0.085,0.122,0.183,0.184,0.292l0,0c0.158,0.317,0.292,0.695,0.341,1.11
				h-0.061l-0.476,0.024h-0.11l-1.305,0.061l-0.658,0.037h-0.086c0-0.11,0-0.22,0-0.329c0.013-0.159,0.024-0.293,0.049-0.439
				c0.049-0.269,0.135-0.512,0.232-0.707C564.784,742.49,565.064,742.246,565.406,742.208z M562.991,743.746
				c0.024-0.062,0.037-0.11,0.073-0.171c0.049-0.109,0.11-0.207,0.183-0.305c0.257-0.378,0.646-0.671,1.122-0.854
				c-0.036,0.073-0.061,0.146-0.085,0.219c-0.013,0.024-0.013,0.049-0.024,0.073c-0.013,0.024-0.013,0.049-0.024,0.062
				c-0.061,0.22-0.109,0.463-0.134,0.731c-0.013,0.134-0.024,0.28-0.024,0.427c0,0.098,0,0.207,0,0.305c0,0.013,0,0.037,0,0.062
				v0.049l-1,0.049l-0.184,0.012v-0.024c0-0.085,0-0.171,0.013-0.256c0-0.013,0-0.037,0.012-0.049
				c0.013-0.073,0.024-0.134,0.037-0.207C562.967,743.831,562.979,743.794,562.991,743.746z M561.504,744.453
				c0-0.036,0-0.061,0-0.098c0.024-0.341,0.183-0.671,0.463-0.951c0.024-0.024,0.049-0.049,0.073-0.085
				c0.024-0.024,0.049-0.049,0.073-0.062c0.086-0.073,0.183-0.146,0.28-0.22c0.159-0.109,0.342-0.207,0.537-0.305
				c-0.086,0.122-0.146,0.257-0.207,0.391c-0.037,0.073-0.062,0.134-0.086,0.207c-0.012,0.024-0.024,0.049-0.024,0.073
				c-0.012,0.049-0.024,0.086-0.036,0.134c-0.013,0.037-0.024,0.086-0.024,0.122c-0.049,0.244-0.073,0.5-0.073,0.744l-0.671,0.037
				h-0.062l-0.231,0.012l0,0H561.504z M566.747,747.965c-0.354-0.171-0.719-0.342-1.085-0.5h0.013c0.036,0,0.072,0,0.109,0l0,0
				c0.036,0,0.073,0,0.098,0c0.012,0,0.024,0,0.036,0h0.013c0.024,0,0.036,0,0.061,0c0.013,0,0.024,0,0.037,0
				c0.024,0,0.049,0,0.061,0c0.305-0.013,0.598-0.049,0.878-0.086c0.427-0.073,0.829-0.171,1.195-0.305
				c0.062-0.024,0.109-0.037,0.171-0.061c0.134-0.049,0.269-0.11,0.391-0.171c0.036-0.013,0.072-0.037,0.097-0.049l0,0
				c0.317,0.122,0.635,0.243,0.951,0.378c0.403,0.171,0.793,0.342,1.184,0.524l-4.098,0.366
				C566.833,748.001,566.784,747.99,566.747,747.965z M568.053,748.635l3.438-0.305l0,0c-0.036,0.024-0.073,0.062-0.109,0.086l0,0
				c-0.013,0.012-0.024,0.012-0.037,0.024c-0.256,0.219-0.463,0.451-0.646,0.707c-0.171,0.244-0.306,0.512-0.391,0.78
				c0,0.013-0.013,0.024-0.013,0.037l0,0c-0.572-0.379-1.146-0.732-1.743-1.062C568.394,748.819,568.224,748.721,568.053,748.635z
				 M576.113,755.197L576.113,755.197L576.113,755.197c0.171,0.012,0.342,0.024,0.513,0.036c0.049,0,0.109,0,0.158,0l0,0
				c0.024,0,0.036,0,0.049,0c0.024,0,0.049,0,0.085,0c0.013,0,0.037,0,0.049,0h0.013c0.024,0,0.061,0,0.085,0
				c0.013,0,0.037,0,0.062,0s0.061,0,0.085,0c0.817,0,1.609-0.098,2.342-0.268c0.109-0.024,0.219-0.049,0.329-0.086l0,0
				c0.122-0.036,0.244-0.073,0.365-0.109c0.086-0.037,0.184-0.062,0.269-0.098l0,0l0,0c0.062,0.061,0.11,0.134,0.171,0.207l0,0
				c0.024,0.024,0.049,0.062,0.073,0.086c0.415,0.5,0.805,1.012,1.171,1.536l0,0l-4.513,0.402l0,0l-0.122-0.183
				c-0.036-0.049-0.072-0.11-0.121-0.158C576.845,756.099,576.491,755.648,576.113,755.197z M575.784,764.538
				c0.024-0.658,0.317-1.268,0.817-1.805c0.243-0.268,0.549-0.512,0.902-0.743c0.098-0.062,0.195-0.122,0.305-0.184
				c0.098-0.061,0.207-0.109,0.305-0.158c0.024-0.013,0.049-0.024,0.086-0.037c0.085-0.036,0.158-0.073,0.243-0.121
				c0.086-0.037,0.171-0.073,0.269-0.122c-0.036,0.049-0.073,0.098-0.098,0.146c-0.012,0.023-0.024,0.036-0.036,0.061
				c-0.024,0.024-0.037,0.061-0.062,0.085c0,0,0,0,0,0.013c0,0.012-0.012,0.012-0.012,0.024c-0.024,0.036-0.049,0.073-0.062,0.098
				c-0.012,0.024-0.024,0.049-0.036,0.085c-0.024,0.049-0.049,0.086-0.073,0.135c-0.013,0.023-0.024,0.049-0.037,0.072
				c-0.012,0.024-0.024,0.049-0.036,0.073c-0.024,0.049-0.049,0.11-0.073,0.159c-0.012,0.024-0.024,0.036-0.024,0.061
				c-0.012,0.024-0.012,0.037-0.024,0.062c-0.024,0.061-0.049,0.122-0.073,0.183c-0.012,0.024-0.012,0.049-0.024,0.073l0,0
				c-0.012,0.036-0.024,0.085-0.049,0.134c0,0.013-0.012,0.024-0.012,0.024l0,0c-0.013,0.037-0.024,0.062-0.024,0.098
				c-0.159,0.524-0.244,1.073-0.269,1.634h-1.866C575.784,764.563,575.784,764.55,575.784,764.538z M578.345,767.953
				c-1.305-0.707-2.207-1.634-2.487-2.634h1.817c0.109,1.012,0.487,1.938,1.061,2.744c0.036,0.048,0.073,0.097,0.109,0.146
				C578.675,768.124,578.504,768.05,578.345,767.953z M584.04,769.331c-0.049,0-0.109,0-0.171,0l0,0c-0.024,0-0.061,0-0.085,0
				c-0.013,0-0.024,0-0.037,0l0,0c-0.023,0-0.036,0-0.048-0.012c-0.244-0.037-0.488-0.135-0.72-0.281
				c-0.439-0.28-0.842-0.743-1.146-1.341l0,0c-0.622-1.817-0.524-2.256-0.562-2.378h5.098v0.036c0,0.062,0,0.122,0,0.195
				c0,0.049,0,0.098-0.012,0.146c0,0.012,0,0.024,0,0.036l0,0l0,0c0,0.037,0,0.073-0.013,0.11c-0.012,0.109-0.024,0.207-0.036,0.305
				c0,0.036-0.013,0.073-0.013,0.109c-0.012,0.062-0.012,0.11-0.024,0.171c0,0.013,0,0.024,0,0.024s0,0,0,0.013
				c0,0.036-0.012,0.061-0.012,0.098c0,0.012,0,0.012,0,0.023c0,0.013,0,0.024-0.013,0.037c0,0,0,0,0,0.012
				c-0.012,0.037-0.012,0.073-0.023,0.122l0,0l0,0l0,0l0,0v0.013c-0.024,0.109-0.049,0.207-0.086,0.305
				c0,0.012-0.012,0.024-0.012,0.036l0,0C585.735,768.417,584.955,769.282,584.04,769.331z M586.04,769.038
				c0.098-0.194,0.171-0.39,0.256-0.609l0,0v-0.012c0.013-0.037,0.024-0.073,0.037-0.122c0.012-0.037,0.024-0.073,0.036-0.11v-0.012
				c0.013-0.037,0.013-0.062,0.024-0.098c0.013-0.049,0.024-0.098,0.037-0.146c0.012-0.061,0.036-0.122,0.049-0.195
				c0-0.024,0.012-0.049,0.012-0.073v-0.012c0.024-0.085,0.037-0.171,0.062-0.256c0.024-0.086,0.036-0.184,0.049-0.281
				c0.012-0.097,0.036-0.194,0.049-0.28c0.012-0.085,0.024-0.195,0.036-0.293c0-0.036,0.013-0.072,0.013-0.109
				c0-0.012,0-0.024,0-0.049c0-0.049,0.012-0.098,0.012-0.146v-0.012v-0.013c0-0.012,0-0.024,0-0.036c0-0.024,0-0.062,0-0.086
				c0-0.012,0-0.012,0-0.023c0-0.025,0-0.037,0-0.062c0-0.012,0-0.024,0-0.049s0-0.049,0-0.061c0-0.073,0.013-0.146,0.013-0.22
				c0-0.086,0-0.171,0.012-0.256c0-0.037,0-0.062,0-0.098h2.293c0,0.012,0,0.024,0,0.036c-0.013,0.451-0.11,0.878-0.269,1.28
				c0,0.013-0.013,0.024-0.024,0.037l0,0c-0.024,0.049-0.049,0.109-0.073,0.158c-0.098,0.195-0.207,0.391-0.342,0.573
				c-0.024,0.037-0.049,0.073-0.085,0.11c-0.036,0.036-0.061,0.085-0.098,0.121c-0.012,0.013-0.024,0.024-0.036,0.037
				c-0.037,0.049-0.086,0.098-0.122,0.134c-0.013,0.013-0.024,0.024-0.037,0.037c-0.036,0.036-0.061,0.061-0.098,0.098l0,0
				c-0.134,0.134-0.292,0.256-0.451,0.365c-0.073,0.049-0.146,0.11-0.231,0.159c-0.049,0.036-0.109,0.072-0.171,0.098
				c-0.207,0.121-0.438,0.231-0.671,0.329C586.247,768.965,586.15,769.001,586.04,769.038z M591.735,765.355
				c-0.036,1.013-0.707,1.902-1.78,2.598c-0.171,0.11-0.354,0.207-0.537,0.305c-0.098,0.049-0.194,0.098-0.292,0.146l0,0l0,0
				c-0.098,0.049-0.195,0.086-0.293,0.122c0.049-0.061,0.098-0.134,0.146-0.207c0.036-0.049,0.073-0.11,0.098-0.171l0,0l0,0l0,0
				c0.061-0.11,0.122-0.22,0.183-0.329c0.098-0.208,0.195-0.415,0.269-0.635c0.061-0.183,0.122-0.365,0.171-0.561
				c0.109-0.427,0.17-0.878,0.183-1.317h1.865C591.735,765.331,591.735,765.343,591.735,765.355z"/>
		</g>
		<g>
			<path style="fill:#CA4D5E;" d="M573.369,738.086L573.369,738.086l-3.585,3.586c0,0,0,0-0.013,0l0,0
				c-0.231-0.171-0.487-0.317-0.756-0.439c-0.036-0.024-0.085-0.036-0.122-0.061c0,0-0.012,0-0.012-0.013h-0.013
				c-0.012,0-0.024-0.012-0.024-0.012c-0.012,0-0.012,0-0.024-0.013c-0.305-0.134-0.634-0.243-0.976-0.341l7.073-7.073l1.402,1.402
				L573.369,738.086z"/>
			<path style="fill:#CA4D5E;" d="M595.296,755.563l-4.585,4.585c-0.561-0.354-1.195-0.671-1.878-0.939l4.366-4.365l-17.866-17.866
				l1.414-1.414l18.549,18.548C595.699,754.514,595.699,755.16,595.296,755.563z"/>
			<path style="fill:#CA4D5E;" d="M574.479,772.697l-1.415,1.414l-18.536-18.548c-0.402-0.403-0.402-1.049,0-1.439l6.536-6.537l0,0
				c0.354,0.135,0.707,0.269,1.062,0.415c0.012,0,0.024,0.013,0.036,0.013c0.024,0.012,0.049,0.023,0.073,0.023
				c0,0,0.012,0,0.012,0.013c0.257,0.098,0.513,0.22,0.817,0.354l-6.438,6.439L574.479,772.697z"/>
			<path style="fill:#CA4D5E;" d="M578.418,772.441l-3.512,3.512l-1.415-1.415l4.269-4.256c0.195,0.098,0.391,0.184,0.598,0.269l0,0
				C578.394,771.16,578.418,771.794,578.418,772.441z"/>
		</g>
	</g>
</g>
</svg>
